<?xml version="1.0" standalone="no"?>
<!DOCTYPE svg PUBLIC "-//W3C//DTD SVG 1.1//EN" "http://www.w3.org/Graphics/SVG/1.1/DTD/svg11.dtd" >
<!--
2013-9-30: Created.
-->
<svg>
<metadata>
Created by iconfont
</metadata>
<defs>

<font id="iconfont" horiz-adv-x="1024" >
  <font-face
    font-family="iconfont"
    font-weight="500"
    font-stretch="normal"
    units-per-em="1024"
    ascent="896"
    descent="-128"
  />
    <missing-glyph />
    
    <glyph glyph-name="x" unicode="x" horiz-adv-x="1001"
d="M281 543q-27 -1 -53 -1h-83q-18 0 -36.5 -6t-32.5 -18.5t-23 -32t-9 -45.5v-76h912v41q0 16 -0.5 30t-0.5 18q0 13 -5 29t-17 29.5t-31.5 22.5t-49.5 9h-133v-97h-438v97zM955 310v-52q0 -23 0.5 -52t0.5 -58t-10.5 -47.5t-26 -30t-33 -16t-31.5 -4.5q-14 -1 -29.5 -0.5
t-29.5 0.5h-32l-45 128h-439l-44 -128h-29h-34q-20 0 -45 1q-25 0 -41 9.5t-25.5 23t-13.5 29.5t-4 30v167h911zM163 247q-12 0 -21 -8.5t-9 -21.5t9 -21.5t21 -8.5q13 0 22 8.5t9 21.5t-9 21.5t-22 8.5zM316 123q-8 -26 -14 -48q-5 -19 -10.5 -37t-7.5 -25t-3 -15t1 -14.5
t9.5 -10.5t21.5 -4h37h67h81h80h64h36q23 0 34 12t2 38q-5 13 -9.5 30.5t-9.5 34.5q-5 19 -11 39h-368zM336 498v228q0 11 2.5 23t10 21.5t20.5 15.5t34 6h188q31 0 51.5 -14.5t20.5 -52.5v-227h-327z" />
    

    
    <glyph glyph-name="close" unicode="&#59670;" d="M176.661601 78.82711900000004C168.472798 70.35594500000002 168.701706 56.85036400000001 177.172881 48.661562 185.644056 40.472758999999996 199.149636 40.70166800000004 207.338438 49.17284299999994L826.005105 689.1728430000001C834.193907 697.644017 833.964998 711.149597 825.493824 719.338399 817.02265 727.527202 803.517069 727.2982939999999 795.328267 718.827119L176.661601 78.82711900000004ZM795.328267 49.17284299999994C803.517069 40.70166800000004 817.02265 40.472758999999996 825.493824 48.661562 833.964998 56.85036400000001 834.193907 70.35594500000002 826.005105 78.82711900000004L207.338438 718.827119C199.149636 727.2982939999999 185.644056 727.527202 177.172881 719.338399 168.701706 711.149597 168.472798 697.644017 176.661601 689.1728430000001L795.328267 49.17284299999994Z"  horiz-adv-x="1024" />

    
    <glyph glyph-name="more" unicode="&#59657;" d="M642.174253 391.40582C650.164439 384.164713 650.070886 373.825747 641.84009 366.62380199999996L332.618569 96.05497000000003C323.751654 88.29641800000002 322.853148 74.81881599999997 330.611697 65.95190200000002 338.370249 57.08498799999995 351.847851 56.18648099999996 360.714765 63.945029999999974L669.936288 334.513862C697.36486 358.513862 697.727953 398.641139 670.825747 423.021263L360.992414 703.807722C352.26205 711.719614 338.770837 711.056111 330.858944 702.325748 322.947053 693.595384 323.610556 680.104171 332.340919 672.192277L642.174253 391.40582Z"  horiz-adv-x="1024" />

    
    <glyph glyph-name="build" unicode="&#59656;" d="M90.41041574-37.58916237999995l421.58916239 0-1e-8 843.17832476-421.58916238 0L90.41041574-37.58916237999995zM353.90364234 700.19187158l105.39729079 0 0-105.3972908-105.39729079 0L353.90364234 700.19187158zM353.90364234 489.3972908l105.39729079 0 0-105.3972908-105.39729079 0L353.90364234 489.3972908zM353.90364234 278.60270920000005l105.39729079 0 0-105.39729081-105.39729079 0L353.90364234 278.60270920000005zM143.10906155 700.19187158l105.39729081 0 0-105.3972908-105.39729081 0L143.10906155 700.19187158zM143.10906155 489.3972908l105.39729081 0 0-105.3972908-105.39729081 0L143.10906155 489.3972908zM143.10906155 278.60270920000005l105.39729081 0 0-105.39729081-105.39729081 0L143.10906155 278.60270920000005zM564.69822393 542.09593579l368.8905174 0 0-52.69864499-368.8905174 0L564.69822393 542.09593579zM564.69822393-37.58916237999995l105.39729081 0 0 210.7945816 158.09593579 0 0-210.7945816 105.3972908 0 0 474.28780819-368.8905174 0L564.69822393-37.58916237999995z"  horiz-adv-x="1024" />

    
    <glyph glyph-name="idAuth" unicode="&#59655;" d="M832.064 487.872c0-76.16-61.728-137.888-137.888-137.888s-137.888 61.728-137.888 137.888c0 76.16 61.728 137.888 137.888 137.888s137.888-61.728 137.888-137.888zM694.176 836.544c-180.768 0-327.296-146.528-327.296-327.296 0-76.64 26.56-146.976 70.688-202.72l-69.856-64.768-33.984 36.672-287.84-266.976 86.56-93.312 287.84 266.944-25.824 27.84 69.184 64.16c24.448-24.256 52.832-44.416 83.872-60.064-13.056-14.944-26.272-32.128-39.648-51.872l0-212.128 384.896 0 0 212.128c0 0-15.296 26.752-42.048 56.608 101.792 55.488 170.848 163.424 170.848 287.52-0.032 180.8-146.56 327.36-327.328 327.36zM837.568 235.51999999999998c-59.168 59.328-160.64 116.576-277.184-4.64-103.616 49.92-175.328 155.648-175.328 278.336 0 170.72 138.4 309.12 309.12 309.12s309.12-138.4 309.12-309.12c0-118.912-67.264-222.016-165.696-273.728z"  horiz-adv-x="1088" />

    
    <glyph glyph-name="broadcast" unicode="&#59729;" d="M662.93110933 861.80779947l11.67576747 0c44.88866453-6.76802027 31.6896928-74.47701867 31.6896928-133.44679147l0-690.5737568c0-57.99270293 12.47470293-122.7096928-28.35741653-130.1091808-24.8011392-4.4896128-45.96386773 16.00964693-63.38685227 28.35741653-107.97685013 76.52715733-208.21074347 146.15082773-316.928928 223.5217216-15.35791147 10.92909867-41.32172053 25.7035424-41.70252267 48.37240854-0.3285344 19.3515232 15.6341792 37.92651093 36.6955744 38.364912 18.10138667 0.3765344 33.22356373-15.6757792 46.7084032-25.01980694 95.91068053-66.4929952 204.67046613-139.0937408 296.913936-203.50139626L636.23876373 748.3749344c-94.94534507-64.1836544-190.46882453-137.61853653-288.5757792-210.17128213-14.2880416-10.5706976-30.98675733-25.06354027-43.36546026-28.35954987-29.10408533-7.74828907-65.51272533-1.668272-98.41415467-1.668272l-98.41842133 0c-3.89121173-78.398096-0.55360213-164.02608107-1.665072-245.20391787 44.33613013 1.74613867 83.73997867 3.19574293 85.0690496-35.02836906 0.33386773-9.63096107-4.65601387-27.71528107-20.01925867-35.0273024-20.098192-9.5690944-109.14592-5.8709504-121.7656896 3.3376096-7.94669013 5.7941504-11.7547008 16.59951573-15.01337707 26.68914453L34.07059947 546.54820907c6.59628587 46.5100032 84.17731307 33.35903147 133.44679146 33.35903146 31.9766272 0 84.44291413-7.37495467 113.4275328 0 13.32803947 3.3952096 31.78355947 23.56486933 46.70306987 35.03263574C410.08663467 678.2733952 485.25272213 731.59408533 564.51802027 791.752128 592.55756907 813.0343232 632.16408533 848.4306944 662.93110933 861.80779947L662.93110933 861.80779947zM662.93110933 861.80779947M989.8728672 623.2780341299999l0-11.6811008c-13.35470613-28.2123488-45.4572-33.3483648-80.06850133-46.70306986-23.39846827-9.02722667-45.7697344-24.86407253-68.3916672-21.683264-15.2640448 2.14293973-29.041152 17.92751893-28.35741654 33.35903146 1.20426987 27.18408 40.45558507 35.1169024 65.0540576 45.04013227 38.70411307 15.61391253 95.0402784 50.0833472 111.75819414 1.668272L989.8728672 623.2780341299999zM989.8728672 623.2780341299999M989.8728672 408.09553707l0-13.34403947c-8.3434912-36.75530773-49.19161067-28.35954987-91.7442688-28.35954987-24.52487147 0-47.6684064-3.8794784-63.38471893 1.668272-34.24116693 12.09390187-23.92540373 60.163376 1.66933866 68.39273387 13.91364053 4.4736128 36.0033056 1.668272 63.38471894 1.668272C946.78900693 438.1212256 982.72191253 444.3943104 989.8728672 408.09553707L989.8728672 408.09553707zM989.8728672 408.09553707M989.8728672 169.56470506999995l0-16.68164907c-12.89603733-61.81671467-75.68662187-16.55258133-106.75764587 0-23.77926933 12.666704-54.8438944 21.6203296-65.0540576 43.3707936-12.87043733 27.40274667 2.6645408 62.3425824 28.35741654 63.38151893 20.40539307 0.82880213 48.91534293-19.91045867 65.0540576-28.35421653C946.98634133 212.69229759999996 977.34589653 204.4469408 989.8728672 169.56470506999995L989.8728672 169.56470506999995zM989.8728672 169.56470506999995"  horiz-adv-x="1025" />

    
    <glyph glyph-name="chenggong1" unicode="&#59696;" d="M511.434623 832.435289c-247.428276 0-448.010617-200.582341-448.010617-448.01164 0-247.430322 200.581318-448.01164 448.010617-448.01164 247.432369 0 448.012663 200.581318 448.012663 448.01164C959.447287 631.852948 758.865969 832.435289 511.434623 832.435289zM773.519714 513.423675L447.871959 191.96021900000005 245.771031 388.955872l63.996546 68.093864 138.15964-138.15964 261.086343 261.087367L773.519714 513.423675z"  horiz-adv-x="1024" />

    
    <glyph glyph-name="yiwen" unicode="&#59697;" d="M511.238149 831.905216c-247.379157 0-447.90624-200.534246-447.90624-447.911356 0-247.37097 200.534246-447.899076 447.90624-447.899076 247.371994 0 447.90624 200.528106 447.90624 447.899076C959.144388 631.3740399999999 758.610142 831.905216 511.238149 831.905216L511.238149 831.905216zM575.785234 64.899358l-128.424928 0 0 127.913275 128.418788 0 0-127.913275L575.785234 64.899358zM636.645346 376.95453699999996c-50.164516-35.320437-64.719001-64.558341-60.97677-98.006128l0-22.298865L447.814654 256.649544l0 30.658254c-1.874697 57.574277 20.762883 98.005105 70.931492 131.447774 46.417169 35.276435 68.719104 68.717058 66.88841 100.340289-3.747347 39.013549-26.043143 60.34846-66.88841 64.09683-50.16861 0-81.781608-33.441647-94.762247-100.330056l-128.20287 25.077142c24.131607 128.203894 104.95233 190.432167 242.475474 186.731892 115.185392-7.446599 178.364317-59.479673 189.514261-156.072615C731.471039 475.416036 707.238125 421.541011 636.645346 376.95453699999996L636.645346 376.95453699999996z"  horiz-adv-x="1024" />

    
    <glyph glyph-name="jinzhi" unicode="&#59698;" d="M510.983345 832.400496c246.331291 0 447.87554-201.544249 447.87554-447.87554 0-246.332315-201.544249-447.87554-447.87554-447.87554S63.108828 138.193665 63.108828 384.525979C63.108828 630.8562469999999 264.652054 832.400496 510.983345 832.400496L510.983345 832.400496zM318.935378 448.482617l0-127.913275 383.739824 0 0 127.913275L318.935378 448.482617z"  horiz-adv-x="1024" />

    
    <glyph glyph-name="tishi1" unicode="&#59699;" d="M510.983345 832.400496c246.331291 0 447.87554-201.544249 447.87554-447.87554 0-246.332315-201.544249-447.87554-447.87554-447.87554S63.108828 138.193665 63.108828 384.525979C63.108828 630.8562469999999 264.652054 832.400496 510.983345 832.400496L510.983345 832.400496zM575.273581 256.455115l-127.913275 0 0-127.913275 127.913275 0L575.273581 256.455115zM575.273581 640.57868l-127.913275 0 0-320.67858 127.913275 0L575.273581 640.57868z"  horiz-adv-x="1024" />

    
    <glyph glyph-name="baocuo" unicode="&#59701;" d="M511.517511-62.78571899999997c-247.159146 0-447.52557 200.366424-447.52557 447.52557 0 247.158123 200.366424 447.52557 447.52557 447.52557 247.157099 0 447.52557-200.367447 447.52557-447.52557C959.043081 137.57968100000005 758.674611-62.78571899999997 511.517511-62.78571899999997zM685.365978 495.122867l-63.359027 63.062268-110.188588-109.698424L398.096299 562.100304l-64.340377-64.311725 113.613594-113.505124L336.911798 274.34148400000004l63.36005-63.034639 110.322641 109.805872 112.798019-112.716154 64.338331 64.312748L575.070966 385.289366 685.365978 495.122867z"  horiz-adv-x="1024" />

    
    <glyph glyph-name="xinxi" unicode="&#59702;" d="M510.983345-63.349560999999994c-246.331291 0-447.874517 201.544249-447.874517 447.87554 0 246.331291 201.543226 447.874517 447.874517 447.874517s447.87554-201.543226 447.87554-447.874517C958.858886 138.19468800000004 757.313613-63.349560999999994 510.983345-63.349560999999994L510.983345-63.349560999999994zM575.273581 640.509095l-127.913275 0 0-127.913275 127.913275 0L575.273581 640.509095zM575.273581 449.150836l-127.913275 0 0-320.67858 127.913275 0L575.273581 449.150836z"  horiz-adv-x="1024" />

    
    <glyph glyph-name="recharge" unicode="&#59654;" d="M512 96c-6.4 0-19.2 6.4-25.6 12.8L249.6 396.8C236.8 403.2 236.8 422.4 243.2 428.8l70.4 134.4C320 576 326.4 582.4 339.2 582.4l345.6 0c12.8 0 25.6-6.4 25.6-19.2l70.4-134.4c6.4-12.8 6.4-25.6-6.4-32l-243.2-288C531.2 102.39999999999998 518.4 96 512 96zM307.2 422.4L512 179.20000000000005l204.8 243.2-51.2 96L358.4 518.4 307.2 422.4zM512-128c-281.6 0-512 230.4-512 512s230.4 512 512 512 512-230.4 512-512c0-19.2-12.8-32-32-32S960 364.79999999999995 960 384c0 249.6-198.4 448-448 448S64 633.6 64 384s198.4-448 448-448c19.2 0 32-12.8 32-32S531.2-128 512-128zM992 32l-320 0c-19.2 0-32 12.8-32 32s12.8 32 32 32l320 0c19.2 0 32-12.8 32-32S1011.2 32 992 32zM832-128c-19.2 0-32 12.8-32 32l0 320c0 19.2 12.8 32 32 32s32-12.8 32-32l0-320C864-115.20000000000005 851.2-128 832-128z"  horiz-adv-x="1024" />

    
    <glyph glyph-name="adress" unicode="&#59669;" d="M512.012586 879.554758c-213.512263 0-387.217837-173.703561-387.217837-387.215824 0-104.490166 36.307808-222.181432 102.231752-331.398862 69.095591-114.470282 164.687021-211.891199 276.445797-281.740937l8.540289-5.337429 8.539282 5.337429c111.757769 69.849738 207.352219 167.270655 276.445797 281.740937 65.924951 109.21743 102.231752 226.908696 102.231752 331.398862C899.229416 705.851197 725.522835 879.554758 512.012586 879.554758zM512.012586-88.05839100000003C302.546942 46.73359100000005 157.01969 284.020118 157.01969 492.338934c0 195.742984 159.248905 354.989875 354.991889 354.989875 195.741977 0 354.990882-159.246891 354.990882-354.989875C867.003468 284.018104 721.476216 46.729562999999985 512.012586-88.05839100000003zM512.012586 736.824597c-134.811112 0-244.485662-109.675557-244.485662-244.482642 0-134.810105 109.67455-244.486669 244.485662-244.486669 134.810105 0 244.483649 109.677571 244.483649 244.486669C756.496235 627.14904 646.821684 736.824597 512.012586 736.824597zM512.012586 280.08022700000004c-117.041833 0-212.259714 95.219894-212.259714 212.261728 0 117.038813 95.217881 212.2577 212.259714 212.2577 117.03982 0 212.258707-95.217881 212.258707-212.2577C724.270286 375.300122 629.052406 280.08022700000004 512.012586 280.08022700000004z"  horiz-adv-x="1024" />

    
    <glyph glyph-name="maikefengxianxing" unicode="&#59737;" d="M495.941767-17.437905L495.941767 159.07729800000004c0 0.203638 0 0.407276 0.01535 0.611937-134.418432 8.27957-240.878093 119.882368-240.878093 256.512165l0 6.288217 0.047072 0c-0.031722 0.548492-0.047072 1.096984-0.047072 1.653663 0 13.305027 10.772344 24.086581 24.085558 24.086581 13.314237 0 24.086581-10.781554 24.086581-24.086581 0-0.556679-0.016373-1.105171-0.047072-1.653663l0.047072 0 0-8.476045c0-115.39824 93.459578-208.78721 208.747301-208.78721 115.304096 0 208.747301 93.475951 208.747301 208.78721l0 8.476045 0.047072 0c-0.030699 0.548492-0.047072 1.096984-0.047072 1.653663 0 13.305027 10.772344 24.086581 24.086581 24.086581 13.313214 0 24.085558-10.781554 24.085558-24.086581 0-0.556679-0.01535-1.105171-0.047072-1.653663l0.047072 0 0-6.288217c0-136.552026-106.427938-248.233618-240.878093-256.512165 0.01535-0.203638 0.01535-0.407276 0.01535-0.611937l0-176.515203 88.23867 0c13.344936 0 24.164353-10.694573 24.164353-24.085558 0-13.297864-10.709923-24.085558-24.164353-24.085558l-208.590735 0c-13.344936 0-24.164353 10.69355-24.164353 24.085558 0 13.296841 10.709923 24.085558 24.164353 24.085558L495.941767-17.437905zM511.999488 833.610044c-88.708368 0-160.575162-71.92103-160.575162-160.637584l0-256.794597c0-88.590688 71.898517-160.637584 160.575162-160.637584 88.708368 0 160.575162 71.92103 160.575162 160.637584L672.57465 672.9724610000001C672.57465 761.563148 600.676134 833.610044 511.999488 833.610044zM624.402511 416.044834c0-62.035892-50.446949-112.332415-112.403023-112.332415-62.08194 0-112.403023 50.188053-112.403023 112.332415L399.596466 673.10549c0 62.034868 50.446949 112.331391 112.403023 112.331391 62.08194 0 112.403023-50.187029 112.403023-112.331391L624.402511 416.044834z"  horiz-adv-x="1024" />

    
    <glyph glyph-name="maikefeng" unicode="&#59744;" d="M495.940744-17.438928000000033L495.940744 159.07729800000004c0 0.203638 0 0.407276 0.01535 0.611937-134.418432 8.278547-240.878093 119.882368-240.878093 256.512165l0 6.288217 0.047072 0c-0.031722 0.548492-0.047072 1.096984-0.047072 1.653663 0 13.305027 10.772344 24.086581 24.085558 24.086581 13.314237 0 24.086581-10.781554 24.086581-24.086581 0-0.556679-0.016373-1.105171-0.047072-1.653663l0.047072 0 0-8.476045c0-115.399263 93.459578-208.78721 208.747301-208.78721 115.304096 0 208.747301 93.476975 208.747301 208.78721l0 8.476045 0.047072 0c-0.030699 0.548492-0.047072 1.096984-0.047072 1.653663 0 13.305027 10.772344 24.086581 24.086581 24.086581 13.313214 0 24.085558-10.781554 24.085558-24.086581 0-0.556679-0.01535-1.105171-0.047072-1.653663l0.047072 0 0-6.288217c0-136.551002-106.427938-248.233618-240.878093-256.512165 0.01535-0.203638 0.01535-0.407276 0.01535-0.611937l0-176.516226 88.23867 0c13.344936 0 24.164353-10.694573 24.164353-24.085558 0-13.305027-10.709923-24.085558-24.164353-24.085558l-208.590735 0c-13.344936 0-24.164353 10.694573-24.164353 24.085558 0 13.305027 10.709923 24.085558 24.164353 24.085558L495.940744-17.438928000000033zM351.423303 672.9724610000001c0 88.716554 71.866794 160.637584 160.575162 160.637584 88.676645 0 160.575162-72.046896 160.575162-160.637584l0-256.794597c0-88.716554-71.866794-160.637584-160.575162-160.637584-88.676645 0-160.575162 72.046896-160.575162 160.637584L351.423303 672.9724610000001z"  horiz-adv-x="1024" />

    
    <glyph glyph-name="renminbi3" unicode="&#59730;" d="M413.13565333 118.37845332999996L208.00919573 118.37845332999996c-19.13143573 1.41416427-33.83355307 9.3853792-44.10635306 23.91105067S147.42718187 172.93535039999995 145.3033408 190.64743147000001c2.12384107 17.71727147 8.32670187 32.24294293 18.59950187 43.5796096s24.97491733 17.71208213 44.10635306 19.1262464l205.1264576 0 0 66.96261866-205.1264576 1.05867734c-19.13143573 1.4193536-33.83355307 8.14895893-44.10635306 20.1953024S147.42718187 368.85157760000004 145.3033408 387.2746336c2.12384107 17.71208213 8.32670187 32.2377536 18.59950187 43.57442027 10.2728 11.33666667 24.97491733 17.71208213 44.10635306 19.13143573l153.04759254 0L218.6361856 700.8090997300001c-7.08509227 8.49925653-13.8146976 19.30398933-20.19011307 32.41419947-6.3806048 13.10631787-9.21412267 27.4581376-8.50444586 43.0424864 3.54319467 19.84111253 10.62828693 35.96258347 21.2552768 48.35922453 10.62698987 12.40053333 30.4681024 20.37304533 59.5181472 23.91494294 17.00759467-1.4193536 32.24294293-7.26153813 45.70345066-17.53433814 13.46569707-10.27798933 24.4468768-21.436912 32.94613227-33.4793632l161.5520384-295.46689706 177.48927893 297.59073813c8.50444587 12.04634347 19.48692267 22.67333333 32.95132267 31.887456 13.46050773 9.20763627 28.69455893 14.87856427 45.69826133 17.00240533 10.6321792-0.7096768 20.37304533-2.12384107 29.23168107-4.2515744 8.8534464-2.12384107 16.64821547-5.66573867 23.37911787-10.62828693 6.7309024-4.9612512 12.4018304-12.04634347 17.00759466-21.25397867 4.60706133-9.21412267 7.97251307-21.26046613 10.095056-36.14032746 0-20.5456-7.08509227-40.03122453-21.2552768-58.45428054L660.7765568 449.98048853l156.23530027 0c18.42175893-1.4193536 32.9474304-7.79476907 43.57442026-19.13143573 10.62698987-11.33666667 16.6534048-25.86233813 18.06756907-43.57442027-1.41416427-18.423056-7.61183573-34.01129707-18.59950187-46.76731733-10.9824768-12.75083093-25.68459413-19.84111253-44.10635306-21.2552768l-202.9974272-1.06386667 0-64.8348864 204.06129386 0c18.42175893-1.41416427 32.9474304-8.49925653 43.57442027-21.2552768 10.62698987-12.75083093 16.6534048-27.98488213 18.06756907-45.70345066-1.41416427-18.42175893-7.43928213-33.83355307-18.06756907-46.23019414-10.62698987-12.4018304-25.15266133-19.30917867-43.57442027-20.72853333l-204.06129386 1.06386667 0-112.66088c-2.8387072-60.22782507-35.78484053-90.34173653-98.8461824-90.34173654-31.17388693 0-55.4443168 7.43928213-72.80220907 22.3243328-17.36178453 14.87986133-26.7484608 37.54800427-28.16651733 68.01740374L413.13565333 118.37845332999996 413.13565333 118.37845332999996zM413.13565333 118.37845332999996"  horiz-adv-x="1024" />

    
    <glyph glyph-name="z-weixin" unicode="&#59667;" d="M315.827597 579.305151c-9.555633 0-19.058055-3.88754-25.752524-10.635221-6.693446-6.745634-10.635221-16.142655-10.635221-25.752524 0-9.501398 3.883447-19.004843 10.635221-25.752524 6.747681-6.639211 16.196891-10.582009 25.752524-10.582009 9.504468 0 19.007913 3.942799 25.698289 10.635221 6.747681 6.747681 10.637268 16.249079 10.637268 25.699312 0 9.609869-3.889587 19.005866-10.637268 25.752524C334.83551 575.4176110000001 325.332065 579.305151 315.827597 579.305151L315.827597 579.305151zM315.827597 579.305151M591.231017 383.325641c-7.452739 0-14.852266-3.076058-20.138666-8.316409-5.29254-5.234211-8.372691-12.633738-8.372691-20.136619 0-7.504928 3.080152-14.846126 8.318456-20.138666 5.234211-5.290493 12.739139-8.314363 20.191878-8.314363 7.450692 0 14.84408 3.078105 20.138666 8.314363 5.2864 5.238304 8.31027 12.633738 8.31027 20.138666 0 7.502881-3.076058 14.848173-8.31027 20.136619C606.126262 380.30177100000003 598.623381 383.325641 591.231017 383.325641L591.231017 383.325641zM591.231017 383.325641M501.38985 506.583896c9.501398 0 19.004843 3.942799 25.756617 10.635221 6.691399 6.747681 10.580986 16.249079 10.580986 25.752524 0 9.609869-3.889587 19.006889-10.580986 25.752524-6.807033 6.694469-16.309454 10.582009-25.756617 10.582009-9.555633 0-19.002796-3.88754-25.753547-10.635221-6.747681-6.745634-10.635221-16.142655-10.635221-25.752524 0-9.501398 3.88754-19.004843 10.635221-25.752524C482.387054 510.526695 491.833193 506.583896 501.38985 506.583896L501.38985 506.583896zM501.38985 506.583896M803.840276 815.94164L220.104465 815.94164c-77.313853 0-139.941216-62.844304-139.941216-140.426263l0-583.030753c0-77.585029 62.627363-140.427286 139.941216-140.427286L803.892465-47.94266300000004c77.3159 0 139.943262 62.841234 139.943262 140.427286L943.835727 675.515377C943.781492 753.098359 881.150036 815.94164 803.840276 815.94164L803.840276 815.94164zM404.263765 237.17602699999998c-32.662911 0-59.013045 6.693446-91.732238 13.118785l-91.508133-45.89119 26.186406 78.768995c-65.543785 45.839001-104.740506 104.84693-104.740506 176.707584 0 124.666324 117.913527 222.707244 261.848707 222.707244 128.762619 0 241.547335-78.335113 264.168542-183.887101-8.312316 0.972141-16.73515 1.564635-25.213241 1.564635-124.390032 0-222.596727-92.862991-222.596727-207.209272 0-19.113313 2.967588-37.360909 8.042163-54.906517C420.621315 237.60990800000002 412.470681 237.17602699999998 404.263765 237.17602699999998L404.263765 237.17602699999998zM790.449291 145.44890599999997l19.704784-65.382103-71.803349 39.355333c-26.184359-6.585999-52.5304-13.170974-78.606289-13.170974-124.557854 0-222.654033 85.140099-222.654033 190.041264 0 104.687294 98.097202 190.046381 222.654033 190.046381 117.692492 0 222.432998-85.305875 222.432998-190.046381C882.177436 237.17602699999998 843.035974 184.91168600000003 790.449291 145.44890599999997L790.449291 145.44890599999997zM790.449291 145.44890599999997M733.869668 383.325641c-7.450692 0-14.85022-3.076058-20.138666-8.316409-5.294586-5.234211-8.318456-12.633738-8.318456-20.136619 0-7.504928 3.082198-14.846126 8.318456-20.138666 5.234211-5.290493 12.68695-8.314363 20.138666-8.314363s14.84408 3.078105 20.136619 8.314363c5.290493 5.238304 8.312316 12.633738 8.312316 20.138666 0 7.502881-3.076058 14.848173-8.312316 20.136619C748.772077 380.30177100000003 741.320361 383.325641 733.869668 383.325641L733.869668 383.325641zM733.869668 383.325641"  horiz-adv-x="1024" />

    
    <glyph glyph-name="invitation" unicode="&#59653;" d="M450.601628 525.5447369999999m-206.725248 0a202.017 202.017 0 1 1 413.450497 0 202.017 202.017 0 1 1-413.450497 0ZM613.294011 128.520351c0 64.61974 31.533181 121.864512 80.040964 157.218718 0.033769 0.024559 0.035816 0.075725 0.002047 0.101307-25.232684 20.117177-53.011354 37.176714-82.785471 50.595328-0.022513 0.010233-0.049119 0.00614-0.067538-0.00921-43.143613-36.510542-98.936313-58.539254-159.882384-58.539254s-116.737748 22.027689-159.882384 58.539254c-0.01842 0.016373-0.045025 0.019443-0.067538 0.00921C166.329213 280.404574 76.682473 161.06865100000005 62.789045 19.500378999999953c-0.004093-0.037862 0.026606-0.070608 0.064468-0.070608l583.793116 0c0.051165 0 0.081864 0.056282 0.052189 0.099261C625.615641 50.61604999999997 613.294011 88.127386 613.294011 128.520351zM807.722188 282.01628100000005c-84.773755 0-153.49593-68.722174-153.49593-153.49593s68.722174-153.49593 153.49593-153.49593 153.49593 68.722174 153.49593 153.49593S892.495944 282.01628100000005 807.722188 282.01628100000005zM886.964974 106.00761499999999L830.299393 106.00761499999999c-0.035816 0-0.064468-0.028653-0.064468-0.064468l0-56.665581c0-11.7056-8.701173-21.88545-20.354584-22.986527-13.340843-1.260713-24.670889 9.31618-24.670889 22.410406l0 57.240679c0 0.035816-0.028653 0.064468-0.064468 0.064468L728.480426 106.00659199999996c-11.7056 0-21.88545 8.701173-22.986527 20.354584-1.260713 13.340843 9.31618 24.670889 22.410406 24.670889l57.240679 0c0.035816 0 0.064468 0.028653 0.064468 0.064468l0 56.665581c0 11.7056 8.701173 21.88545 20.354584 22.986527 13.340843 1.260713 24.670889-9.31618 24.670889-22.410406l0-57.240679c0-0.035816 0.028653-0.064468 0.064468-0.064468l57.240679 0c13.094226 0 23.671119-11.330046 22.410406-24.670889C908.8494 114.70878700000003 898.66955 106.00761499999999 886.964974 106.00761499999999z"  horiz-adv-x="1024" />

    
    <glyph glyph-name="weixin" unicode="&#59665;" d="M579.800805 384.131568c-11.668045 0-23.34121-10.835638-23.34121-24.174642 0-10.837685 11.667022-21.675371 23.34121-21.675371 17.512307 0 30.015832 10.837685 30.015832 21.675371C609.816637 373.29490599999997 597.313112 384.131568 579.800805 384.131568L579.800805 384.131568zM503.098457 496.689914c18.341643 0 30.015832 11.668045 30.015832 29.181376 0 18.342667-11.673165 29.179329-30.015832 29.179329-17.508211 0-34.184015-10.837685-34.184015-29.179329C468.913418 508.356935 485.590245 496.689914 503.098457 496.689914L503.098457 496.689914zM512.269278 895.439942c-282.619393 0-511.724066-229.104674-511.724066-511.724066 0-282.617345 229.104674-511.722019 511.724066-511.722019 282.617345 0 511.722019 229.104674 511.722019 511.722019C1023.992321 666.335268 794.887647 895.439942 512.269278 895.439942L512.269278 895.439942zM415.557399 254.072177c-30.851312 0-53.362162 4.998543-82.542514 13.339005l-84.20733-42.524476 24.182833 71.705853c-59.196184 41.682854-94.216703 94.209536-94.216703 158.408359 0 113.388706 106.719204 200.09838 236.784738 200.09838 115.054546 0 217.605567-68.36803 237.614074-165.085028-8.336366 1.671983-15.842372 2.501319-22.51085 2.501319-113.388706 0-200.92874-85.038714-200.92874-187.589735 0-17.506164 2.501319-33.346488 6.670526-50.024339C429.732907 254.072177 422.226902 254.072177 415.557399 254.072177L415.557399 254.072177zM763.227477 172.36616600000002l16.671708-60.032688-63.363344 35.849855c-24.17669-4.998543-47.52302-12.503525-71.69971-12.503525-111.722867 0-200.09838 76.702348-200.09838 171.747364 0 95.046039 88.376537 171.749411 200.09838 171.749411 105.882701 0 200.92874-76.703372 200.92874-171.749411C845.764871 254.072177 809.915017 206.54915700000004 763.227477 172.36616600000002L763.227477 172.36616600000002zM338.018548 555.050619c-17.508211 0-35.849855-10.837685-35.849855-29.179329 0-17.513331 18.341643-29.186496 35.849855-29.186496 16.676827 0 30.015832 11.673165 30.015832 29.186496C368.03438 544.212933 354.695375 555.050619 338.018548 555.050619L338.018548 555.050619zM710.701818 384.131568c-12.508644 0-23.34633-10.835638-23.34633-24.174642 0-10.837685 10.837685-21.675371 23.34633-21.675371 16.671708 0 29.179329 10.837685 29.179329 21.675371C739.881147 373.29490599999997 727.373526 384.131568 710.701818 384.131568L710.701818 384.131568zM710.701818 384.131568"  horiz-adv-x="1024" />

    
    <glyph glyph-name="feedback" unicode="&#59652;" d="M247.515257 312.62848599999995L247.478418 152.28459099999998 407.822312 152.28459099999998 247.515257 312.62848599999995ZM862.063841 606.526119L701.719946 766.871037 274.232758 339.348034 434.540837 179.004139 862.063841 606.526119ZM125.487016 73.64862600000004l768.975722 0 0-89.023546-768.975722 0 0 89.023546Z"  horiz-adv-x="1024" />

    
    <glyph glyph-name="name" unicode="&#59651;" d="M768 230.39999999999998c-6.4 6.4-12.8 12.8-19.2 12.8-19.2 0-32-12.8-32-32 0-12.8 6.4-19.2 12.8-25.6l0 0 0 0c76.8-57.6 128-147.2 134.4-249.6l57.6 0C915.2 57.60000000000002 857.6 160 768 230.39999999999998M524.8 339.20000000000005c-115.2 0-211.2 96-211.2 211.2C307.2 672 403.2 768 524.8 768c115.2 0 211.2-96 211.2-211.2C736 435.2 640 339.20000000000005 524.8 339.20000000000005zM800 550.4c0 153.6-121.6 281.6-281.6 281.6C371.2 832 243.2 710.4 243.2 550.4c0-102.4 57.6-192 140.8-243.2C224 262.4 108.8 115.20000000000005 102.4-64l57.6 0C166.4 121.60000000000002 320 268.79999999999995 505.6 275.20000000000005l6.4 0c6.4 0 6.4 0 12.8 0C678.4 275.20000000000005 800 396.8 800 550.4z"  horiz-adv-x="1024" />

    
    <glyph glyph-name="enchashment" unicode="&#59650;" d="M320.23743274 163.77366575999997L320.23743274 245.21980887999996 387.47349556 312.50552545000005 320.23743274 379.79124293999996 320.23743274 461.23625638 428.35342774 353.41366982 428.39969617 353.45881044 469.37329587 312.50552545000005 428.39969617 271.54772638 428.35342774 271.59512357999995ZM120.57182899 346.18336794000004l291.4476825 0 0-67.35794156-291.4476825 0 0 67.35794156ZM1016.28077711 427.28305982L794.46609275 427.28305982c-35.32319531 0-63.96002625-28.64360062-63.96002626-63.97808155l0-109.12261783c0-35.33448094 28.63570125-63.97808156 63.96002626-63.97808155l221.81468342 0c35.32319531 0 63.9588975 28.64360062 63.9588975 63.97808155l0 109.12261783C1080.23967367 398.63945919 1051.60397242 427.28305982 1016.28077711 427.28305982zM1044.98418836 279.08159638999996c0-28.21025625-22.86229219-51.07932094-51.06465-51.07932094L816.82620274 228.00227544999996c-28.20235687 0-51.06465 22.86906375-51.06465 51.07932094l0 64.4362528c0 28.21025625 22.86342188 51.07932094 51.06465 51.07932095l177.09333562 0c28.20235687 0 51.06465-22.86906375 51.06465-51.07932095L1044.98418836 279.08159638999996zM805.23537367 312.50439762999997a28.125 28.1165625 90 1 1 67.68972 0 28.125 28.1165625 90 1 1-67.68972 0ZM730.49703836 868.55047608L218.3473743 703.89547419 218.3473743 662.28201577 257.33368211 662.28201577 697.20401524 803.70006295 742.64421837 662.28201577 796.7738765 662.28201577ZM308.97274024 32.646415440000055c-29.47643438 0-53.3735625 23.90389875-53.3735625 53.38936125L255.5991768 130.33168046000003l-25.2107025 0 0-58.92352875c0-35.33448094 28.63683-63.97921031 63.95776875-63.97921032l122.56531688 0 0 25.21747405L308.97274024 32.646415440000055zM963.10131649 62.793179200000054c0-61.05075187-39.22667906-105.44032125-100.25711812-105.44032126l-583.00821376-1.16574187c-61.03043813 0-105.37486875 45.46277344-105.37486875 106.51239562l-0.16024687 123.44329033-0.32726532 0.32839405-0.0169275 41.63151375-53.38710468 0 0-111.781365 0-79.48593654c0-70.66783313 57.27366094-127.95503531 127.92230907-127.95503534l639.59348905 0c70.64864813 0 127.91666625 57.28720219 127.91666626 127.95503534L1016.0020368 190.20314828000005l-52.45834781 0.00112873L963.10131649 62.793179200000054zM888.08537055 708.6058351300001L248.49188056 708.6058351300001c-70.64864813 0-127.92230906-57.28833094-127.92230907-127.95616405l0-191.265045 53.32052251 0-0.06883875 171.35829562c0 61.05075187 41.83802906 101.80429219 102.87410999 101.80429218l588.58300688 0c61.03043813 0 97.29367594-43.53980813 97.29367593-104.59055999l0.9693825-130.67246531 52.45834781 0L1015.99978025 580.64854233C1016.00090806 651.3163764 958.73289087 708.6058351300001 888.08537055 708.6058351300001z"  horiz-adv-x="1332" />

    
    <glyph glyph-name="pengyouquan" unicode="&#59666;" d="M687.46922667 854.54734222s-66.38592 27.33511111-167.91324445 27.33511111-167.91324445-31.23996445-167.91324444-31.23996444l335.82876444-337.77891556v341.68376889zM869.04945778 735.44704c-72.24092445 70.28963555-140.57813333 95.67118222-140.57813333 95.67118222l-1.95242667-474.45560889 242.10545777 242.10545778s-29.28753778 66.38592-99.57717333 136.67555556zM982.29475555 548.00611555l-337.77891555-333.87406222v-1.95242666h341.68376889s27.33511111 66.38592 27.33511111 167.91324444-31.23996445 167.91324445-31.23996445 167.91324444zM730.42261333-70.92906667s66.38592 29.28753778 136.67555556 99.57717334c70.28963555 72.24092445 95.67118222 140.57813333 95.67118222 140.57813333l-474.45560889 1.95242667 242.10545778-242.10545778zM349.68917333 251.23157332999995v-341.68376888s66.38592-27.33511111 167.91324445-27.33511112c101.5296 0 167.91324445 31.23996445 167.91324444 31.23996445l-333.87406222 337.77891555h-1.95242667zM172.01493333 28.648106669999947c72.24092445-70.28963555 140.57813333-95.67118222 140.57813334-95.67118222l1.95242666 474.45560888-242.10545778-242.10545778s29.28753778-66.38592 99.57717334-136.67555555zM54.86250667 549.96309333s-27.33511111-66.38592-27.33511112-167.91324444 31.23996445-167.91324445 31.23996445-167.91324444l337.77891555 335.82876444h-341.68376888zM308.68821333 835.02193778s-66.38592-27.33511111-136.67555555-99.57717333c-70.28963555-72.24092445-95.67118222-140.57813333-95.67118223-140.57813334l474.4556089-1.95242666-242.10545778 242.10545777z"  horiz-adv-x="1024" />

    
    <glyph glyph-name="add" unicode="&#59671;" d="M828.02 699.482C743.477 783.616 631.108 829.95 511.546 829.95c-119.558 0-231.954-46.333-316.5-130.467-84.578-84.162-131.17-196.112-131.17-315.195 0-119.112 46.592-231.028 131.135-315.189 84.548-84.133 196.946-130.467 316.507-130.467 119.56 0 231.96 46.334 316.474 130.467 84.611 84.19 131.198 196.14 131.169 315.222 0.03 119.086-46.529 231-131.141 315.162z m-92.63-347.167H543.525v-191.863c0-17.683-14.326-31.975-31.98-31.975-17.646 0-31.973 14.292-31.973 31.975V352.31500000000005H287.711c-17.648 0-31.972 14.324-31.972 31.972 0 17.653 14.324 31.98 31.972 31.98h191.863v191.86c0 17.649 14.326 31.975 31.973 31.975 17.654 0 31.98-14.326 31.98-31.974v-191.861h191.862c17.682 0 31.973-14.327 31.973-31.98 0-17.648-14.291-31.972-31.973-31.972z m0 0"  horiz-adv-x="1024" />

    
    <glyph glyph-name="add1" unicode="&#59728;" d="M896 448H576V768c0 35.2-28.8 64-64 64s-64-28.8-64-64v-320H128c-35.2 0-64-28.8-64-64s28.8-64 64-64h320v-320c0-35.2 28.8-64 64-64s64 28.8 64 64V320h320c35.2 0 64 28.8 64 64s-28.8 64-64 64z"  horiz-adv-x="1024" />

    
    <glyph glyph-name="changjianwenti" unicode="&#59686;" d="M932.53 561.36a456.68 456.68 0 1 1-203.18-579.29 40 40 0 0 1-38.17 70.31 377.56 377.56 0 0 0-179.62-45.43c-207.82 0-376.89 168.94-376.89 376.59 0 208 169.07 377.18 376.89 377.18s376.88-169.2 376.88-377.18a376.27 376.27 0 0 0-91.56-246 40 40 0 1 1 60.52-52.32 457 457 0 0 1 75.12 476.2z m-381-257.75c78 18.17 136.36 88.29 136.36 171.79 0 97.25-79.12 176.36-176.36 176.36S335.2 572.64 335.2 475.39a40 40 0 0 1 80 0A96.36 96.36 0 1 0 511.57 379a40 40 0 0 1-40-40v-66.23a40 40 0 1 1 80 0z m-40-107.69a40 40 0 1 1 40-40 40 40 0 0 1-39.96 39.99z"  horiz-adv-x="1024" />

    
    <glyph glyph-name="chenggong" unicode="&#59687;" d="M773.7 621.1a40 40 0 0 1-55.9-8.65L446.2 241.39999999999998l-144 144a40 40 0 0 1-56.57-56.57l177-177a40 40 0 0 1 28.28-11.72q1.53 0 3.07 0.12a40 40 0 0 1 29.21 16.26L782.35 565.2a40 40 0 0 1-8.65 55.9z m190.51-47.54A490.82 490.82 0 0 1 703 832.52a493 493 0 0 1-537.94-104.28A485.23 485.23 0 0 1 59.81 573.56a482.58 482.58 0 0 1 105.28-533.21A491.9 491.9 0 0 1 512-101.84000000000003a495.5 495.5 0 0 1 233.82 58.59A40 40 0 0 1 708 27.220000000000027a415.22 415.22 0 0 0-196-49.06c-226.54 0-410.84 182.13-410.84 406 0 224.22 184.3 406.63 410.84 406.63s410.86-182.42 410.86-406.64A403 403 0 0 0 823.18 119a40 40 0 1 1 60.25-52.63 482.79 482.79 0 0 1 80.78 507.15z"  horiz-adv-x="1024" />

    
    <glyph glyph-name="shibai" unicode="&#59688;" d="M666.55 187.48000000000002A40 40 0 0 1 695 255.62L386.54 567.2a40 40 0 1 1-56.85-56.28l308.44-311.58a39.87 39.87 0 0 1 28.42-11.86z m296.14 385.7a488.57 488.57 0 1 1-217.37-619.73 40 40 0 0 1-38.17 70.31 409.53 409.53 0 0 0-194.82-49.28c-225.4 0-408.78 183.24-408.78 408.46 0 225.58 183.38 409.1 408.78 409.1s408.78-183.52 408.78-409.1a408.13 408.13 0 0 0-99.31-266.88 40 40 0 1 1 60.52-52.32 488.91 488.91 0 0 1 80.37 509.44z m-268-5.7a40 40 0 0 1-56.57-0.29l-83-83.88A40 40 0 1 1 611.94 427l83 83.88a40 40 0 0 1-0.25 56.6z m-282-228l-83-83.88a40 40 0 1 1 56.85-56.28l83 83.88a40 40 0 1 1-56.85 56.28z"  horiz-adv-x="1024" />

    
    <glyph glyph-name="guanyuwomen" unicode="&#59689;" d="M960.39 572.7A486.6 486.6 0 1 1 743.9-44.52999999999997a40 40 0 1 1-38.17 70.31 407.56 407.56 0 0 0-193.88-49C287.53-23.25999999999999 105 159.09000000000003 105 383.23c0 224.49 182.49 407.13 406.81 407.13s406.85-182.64 406.85-407.13a406.16 406.16 0 0 0-98.83-265.59 40 40 0 1 1 60.52-52.32 486.94 486.94 0 0 1 80 507.38zM473.1 152q0.1-0.93 0.24-1.86c0-0.22 0.07-0.43 0.11-0.64 0.07-0.41 0.14-0.81 0.22-1.22s0.18-0.83 0.27-1.24c0-0.2 0.09-0.4 0.14-0.6q0.23-0.93 0.51-1.84a39.74 39.74 0 0 1 2.63-6.55l0.12-0.24c0.44-0.85 0.9-1.69 1.4-2.5l0.12-0.19c0.41-0.66 0.84-1.31 1.29-1.94l0.51-0.72c0.45-0.61 0.91-1.22 1.4-1.8 0.23-0.28 0.47-0.54 0.71-0.81s0.63-0.71 1-1.06 0.53-0.57 0.8-0.84q0.76-0.76 1.56-1.49l0.78-0.67q0.63-0.54 1.29-1.06l0.65-0.51q1-0.74 2-1.42l0.43-0.28q1-0.66 2.1-1.27l0.15-0.09q1.24-0.69 2.53-1.29a39.68 39.68 0 0 1 8-2.73l0.32-0.07c0.86-0.19 1.72-0.35 2.6-0.48l0.57-0.07q0.93-0.13 1.88-0.21l1.08-0.08c0.51 0 1 0 1.53-0.06h0.9a39.71 39.71 0 0 1 6 0.47l0.41 0.07c0.48 0.08 1 0.16 1.45 0.26l1.25 0.28 0.59 0.14a39.68 39.68 0 0 1 6.14 2.08l99.73 41.55a40 40 0 1 1-30.77 73.85L552.89 216V511v2.1q0 0.83-0.13 1.67v0.47c0 0.43-0.1 0.85-0.16 1.28s-0.08 0.58-0.13 0.86-0.1 0.56-0.15 0.85-0.16 0.85-0.25 1.28l-0.1 0.45q-0.19 0.82-0.41 1.63v0.17q-0.26 0.93-0.56 1.84v0.07q-0.31 0.93-0.66 1.83l-0.06 0.16q-0.32 0.82-0.68 1.62l-0.17 0.37q-0.3 0.66-0.63 1.31l-0.32 0.62-0.53 1-0.5 0.87-0.41 0.67c-0.23 0.37-0.46 0.73-0.7 1.09l-0.28 0.41q-0.43 0.63-0.89 1.25l-0.16 0.22q-0.51 0.68-1.05 1.34l-0.09 0.11q-0.57 0.69-1.18 1.36l-0.07 0.08q-0.6 0.66-1.24 1.3l-0.13 0.13q-0.6 0.59-1.22 1.16l-0.28 0.25c-0.37 0.33-0.74 0.65-1.11 1l-0.51 0.41-0.93 0.73-0.79 0.58-0.7 0.5c-0.36 0.25-0.72 0.48-1.09 0.72L534 545c-0.45 0.28-0.9 0.55-1.36 0.81l-0.23 0.13q-0.78 0.44-1.58 0.84h-0.07q-0.84 0.42-1.71 0.8-0.86 0.38-1.74 0.72-0.83 0.32-1.68 0.6l-0.18 0.06c-0.51 0.17-1 0.32-1.53 0.47l-0.41 0.12-1.31 0.33-0.7 0.16-1 0.21-1 0.19-0.74 0.11-1.4 0.18h-0.44q-0.85 0.08-1.71 0.13h-4.31c-0.55 0-1.1-0.07-1.65-0.13h-0.48l-1.27-0.16-0.87-0.13-0.84-0.15-1.29-0.25-0.44-0.1q-0.83-0.19-1.64-0.41h-0.16q-0.93-0.26-1.85-0.57l-75.16-25.05A40 40 0 1 1 450.38 448l22.52 7.51v-298.94a39.76 39.76 0 0 1 0.2-4.57z m79.79 469.94a40 40 0 1 1-40-40 40 40 0 0 1 40 39.95z"  horiz-adv-x="1024" />

    
    <glyph glyph-name="zhaohang" unicode="&#59703;" d="M955.83 401.11H794.09l7.17-18.48h155v18.48zM219.22 202H466.6L340.36 507.85 219.22 202z m546.1 266.86H948l-1.78 8.14-1.74 7.71-0.58 2.62H757.07l8.26-18.48zM472.76 202h247.41L593.91 507.85 472.76 202zM876.16 208.14l-96.5-140.6h-527.6l-103.69 129.3L376.24 785l129.35-307.95 123.2 311 118-276.1H937.2C881.73 695.5 711.34 829.13 509.73 829.13c-246.58 0-446.49-199.91-446.49-446.5s199.9-446.49 446.49-446.49c192.87 0 357.15 122.28 419.62 293.55h-62.42l9.23-21.55zM811.51 358l8.23-18.5h134.43l2.05 18.5H811.51z m26.67-61.61H948l1.12 6.75 1.94 11.7H830l8.2-18.45z m-55.41 129.36h171.4l-0.17 1.05-1 9.71-0.84 7.71h-176.6l7.2-18.47z m65.7-153.95l8.2-17.48h81.12l5.15 17.48h-94.48z"  horiz-adv-x="1024" />

    
    <glyph glyph-name="youzheng" unicode="&#59704;" d="M147.2 331l-4.33-24.54h129.92l5.77 24.54z m330.57-24.54L482.1 331H334.86l-5.77-24.54z m82.28 124.14L539.84 331l-5.78-24.54-20.21-99.6h-205l-4.33-23.09h239.65L575.93 331l20.21 99.6H883.4L861.75 331H632.23l-52-246.85H282.89L278.56 61H612l31.76 145.79L664 306.45000000000005h193.42l-20.21-99.6H700.07L669.76 61l-21.65-99.6h-447.5l52 245.4H64.92l21.65 99.6L90.9 331l21.65 99.6h186.22l52 245.4h205l26 124.15h379.58l-21.65-99.6H616.35L612 676l-20.21-99.6h-205l-5.77-23.1h241.1l4.33 23.1 21.66 99.6h287.26l-21.65-99.6H684.19l-26-122.7H360.85l-5.78-23.1h205z"  horiz-adv-x="1024" />

    
    <glyph glyph-name="gonghang" unicode="&#59712;" d="M764.7 351v-199.2H544.19v64.4h150.09v73.51H544.19v199h150.09v67.5H544.19v64.43H764.7v-199H614.61v-67.47H764.7V351z m-505.58 0v-199.2H479.6v64.4H329.51v73.51H479.6v199H329.51v67.5H479.6v64.43H259.12v-199h150.09v-67.47H259.12V351zM512 832.13c-248 0-449-201-449-449s201-449 449-449 449 201 449 449-201 449-449 449z m0-808.95c-198.8 0-359.94 161.15-359.94 359.94s161.15 360 359.94 360 359.94-161.16 359.94-360S710.79 23.190000000000055 512 23.190000000000055z"  horiz-adv-x="1024" />

    
    <glyph glyph-name="zhonghang" unicode="&#59713;" d="M963.1 402.7c-5.8 159.1-104.9 267.4-104.9 267.4C705 848.4 508.4 831.7 508.4 831.7c-209.9 6.7-339-151.6-339.1-151.5C81 575.2 71 478.6 71 478.6c-39.1-162.5 42.5-302.4 42.5-302.4 60.8-110 125-160.8 229.1-209.1 104.2-48.3 262.4-41.6 360.7 7.5 98.3 49.1 158.2 103.2 213.2 205.7 54.9 102.5 46.6 222.4 46.6 222.4zM465.9 33.60000000000002S301 42.799999999999955 210.2 201c0 0-78.3 111.6-45.8 250.7C196.9 591 272.7 646.8 287.7 661c15 14.1 112 71.8 178.2 70.8V566h-70s-95-5.8-98.3-110.8v-153.3s2.5-94.1 100.8-105h67.5v-163.3z m-56.6 260.9s-16.7-4.2-19.2 15V456.1s2.5 15.8 15 15.8h205.7s17.5 3.3 19.2-15.8v-142.4s4.2-22.5-12.5-19.2H409.3zM809.9 187c-66.6-101.6-193.2-148.3-252.4-153.3V197h78.3s83.3 16.7 88.3 103.3V474.4s-13.3 87.5-105.8 91.6h-60.8l0.1 165.8s104.1-8.3 188.2-85.8 105.8-154.9 114.9-196.6c9.2-41.6 15.8-160.8-50.8-262.4z"  horiz-adv-x="1024" />

    
    <glyph glyph-name="huaxia" unicode="&#59717;" d="M926.8 638.15l-31.59 40.44s-123.84-20.22-121.3 49.28c0 0 8.84 51.81-80.88 31.59 0 0-21.48 20.21-20.22 31.59 0 0 6.32 30.33-91 13.9 0 0-144.06-17.69-302-198.38 0 0-159.22-130.15-159.22 3.79 0 0-87.19-88.45-40.44-159.22 0 0 53.07-74.55 154.17-13.9 0 0-31.59-245.13 130.15-372.76 0 0 169.33-156.69 363.93-101.09 0 0 163 34.12 224.92 198.39 0 0-29.06-29.06-41.7-26.54 0 0 44.23 53.07 46.76 75.82 0 0-1.27 31.59-26.54-17.69 0 0 6.32 30.33-11.37 15.16 0 0-85.93-99.82-122.58-104.87 0 0-271.68-160.48-395.52 163 0 0-53.07 152.9 72 267.88s247.67 103.61 360.14 20.22c0 0 56.86 64.44 80.87 51.81 0 0 21.48 12.63 11.37 31.59zM550.12 484.47l276.46 1.3v-210.26H550.12V484.47z"  horiz-adv-x="1024" />

    
    <glyph glyph-name="jiaohang" unicode="&#59716;" d="M810.35 158.72000000000003c-52.35-1.72-100.73-3.38-153.08-5.07-33.15-141-307.25-102.92-276.72 76C395.89 335.64 539.1 381.91999999999996 628 301.9c19.54-22.08 29.11-42.56 35.38-87.45 43.91 1.69 103.11 3.38 147 5.07 2.23 228-256.73 343.7-450.92 233.05-186.16-106.06-164.67-429.18 30.4-511.71v-5.07c-106.37 2.09-223 84.48-248.44 182.39l1.44 525.65C227.28 701.24 320.6 770.0699999999999 405 827.49l10.13-5.07c-5.83-79.24-2.15-209.91 2.53-305.26 52.91 51.34 88.54 105 179.87 122.87 58.87 11.5 115.19 4.57 150.73-7.6 266.79-91.4 283.4-436.13 57-554.78-5.07 0-16.07-10-24.48-11.63 0 1.69 5.27 9 9.28 16.7l20.26 76z"  horiz-adv-x="1024" />

    
    <glyph glyph-name="xinyongshe" unicode="&#59720;" d="M550.83 138.41999999999996l140.84-171.79h221.74L784.56 104.47000000000003l-5.99 8.99-1 3.99-1 4v10.98l1 4 1 3.99 2 5 3.99 5.99 4.99 8.99 6 6.99L924.4 317.22l8.99 10.99 6.99 9.98 4.99 9.99 6 9.99 3.99 9.99 3 9.99 2 9.98V417.1l-2 9.99-3 8.99-3.99 9.99-6 9.98-4.99 8-6.99 9.98L656.71 798.65l-43.95-38.95 132.85-160.81 7.99-10.99 5.99-10.99 3-5.99 1-4.99 0.99-6v-4.99l-0.99-11.99-3-10.99-5-10.98-6.99-10.99-192.77-221.74-5-3.99-1.99-5-6-6.99-4.99-8.99-3-8.99-3.99-8.99-2-8.99-1-9.99-2-8.99v-9.98l2-9.99 1-10.99 3-8.99 3.99-9.99 4-9.99 4.99-9.99 4-4.99 1.99-4zM346.07 558.9300000000001l1 15.99 3 16.98 1 7.99 2.99 8.99 6 14.98 6.99 13.98 3.99 7 4 6.99 9.99 11.98 8.99 12.99 12.98 9.98 11.99 9 13.98 8.98 13.98 7 14.99 4.99 8.99 3 7.99 1 7.99 1.99 8.99 1h7.99l8.99 2 14.98-2 14.98-2.99 14.99-2 13.98-6 6.99-2.99 6.99-3 13.99-6.99 12.98-7.99 10.99-9.99 8.99-10.99 5.99-4.99 4-5.99 9.98-10.99 7-13.98 6.99-13.99 1-6.99 2.99-6.99 4-14.98 3-14.99H580.8l-67.92 67.93-87.9-85.91 87.9-85.89 67.92 67.91h96.89l-3-16.97-4-13.99-2.99-6.99-1-6.99-6.99-13.99-7-13.98-9.98-10.98-9.99-10.99-8.99-10.99-10.99-9.99-6.99-3.99-5.99-4-7-3.99-6.99-3-13.98-5.99-13.98-5-14.99-3.99-14.98-2-14.98-1-16.98 1-16.98 2.99-7.99 1-8.99 3-14.99 5.99-13.98 7-6.99 3.99-6.99 4-11.99 9.98-12.98 9.99-8.99 11.99-9.99 12.98-7.99 13.99-6.99 12.98-6 15.98-2.99 7.99-1 8-2 8.98-1 7.99-1 7.99v8.99zM471.93 138.41999999999996L332.09-33.370000000000005H109.35L239.2 104.47000000000003l4.99 8.99 2 3.99 1 4v10.98l-1 4-2 3.99-1 5-3.99 5.99-6 8.99-6.99 6.99L98.36 317.22l-7.99 10.99-6.99 9.98-5.99 9.99-5 9.99-3.99 9.99-3 9.99-3 9.98V417.1l3 9.99 3 8.99 3.99 9.99 4 9.98 6.99 8 6.99 9.98L367.05 798.65 411 759.7 278.15 598.89l-8.99-10.99-4.99-10.99-3-5.99-1-4.99-1.99-6v-4.99l1.99-11.99 2-10.99 5.99-10.98 7-10.99 192.77-221.74 4-3.99 2.99-5 5-6.99 4.99-8.99 3.99-8.99 4-8.99 1-8.99 2-9.99 1-8.99v-9.98l-1-9.99-2-10.99-2-8.99-4.99-9.99-4-9.99-4.99-9.99-3-4.99-2.99-4z"  horiz-adv-x="1024" />

    
    <glyph glyph-name="nonghang" unicode="&#59715;" d="M515.4 828.13c-13.38 0-26.76-0.45-40.14-1.78v-215.42a17.89 17.89 0 0 1 17.84-17.84h44.6a17.89 17.89 0 0 1 17.84 17.84V826.35c-13.38 1.34-26.76 1.78-40.14 1.78zM542.61 536H605a17.89 17.89 0 0 1 17.84 17.84V783.53h44.6v-365.72A20.46 20.46 0 0 0 647 397.3H545.73c-19.62 0-20.52-10.26-20.52-10.26V518.61c-0.44 9.39 7.58 17.39 17.4 17.39zM489.09 536h-62.44a17.89 17.89 0 0 0-17.84 17.84V783.53h-44.6v-365.72a20.46 20.46 0 0 1 20.52-20.52H486c19.62 0 20.52-10.26 20.52-10.26V518.61c0.41 9.39-7.62 17.39-17.43 17.39zM382 239.86h71.36A17.89 17.89 0 0 0 471.25 222v-277h35.68V358a20.46 20.46 0 0 1-20.52 20.52H385.17c-19.62 0-20.52 10.26-20.52 10.26v-131.53c-0.45-9.37 7.58-17.39 17.39-17.39z m267.6 0h-71.31A17.89 17.89 0 0 1 560.45 222v-277h-35.68V358a20.46 20.46 0 0 0 20.52 20.52h101.23c19.62 0 20.52 10.26 20.52 10.26v-131.53c0.45-9.37-7.58-17.39-17.39-17.39zM622.89 815.2v-92.77c144.5-45.49 249.31-180.63 249.31-340.3 0-197.13-159.67-356.8-356.8-356.8S158.6 185 158.6 382.13c0 160.11 105.26 295.25 250.21 340.74V815.64C213.9 767.48 69.4 591.75 69.4 382.13c0-246.19 199.81-446 446-446s446 199.81 446 446C961.4 591.31 817.34 767 622.89 815.2zM537.25-1.42999999999995h-44.6a17.89 17.89 0 0 0-17.84 17.84v223h80.28v-223a17.89 17.89 0 0 0-17.84-17.84z"  horiz-adv-x="1024" />

    
    <glyph glyph-name="jianhang" unicode="&#59714;" d="M453.86 788.88S531.73 849 665.64 805.28c0 0 45.09-16.4 97-62.85L923.88 573l-86.08-86.07L591.85 737s-41 50.55-138 51.92z m355.25-332L708 358.5s-16.4-23.23-30.06-1.37L492.11 538.85s-16.4 21.86-28.69 2.73L276.23 350.29999999999995s-12.3-19.13 2.77-27.3l183.05-183.11s15-24.59 28.69-5.46l189.93 191.28s5.46 16.4 35.52 12.3h194s8.2-196.75-142.1-319.72c0 0-195.39-195.38-463.19-75.15 0 0-258.24 90.18-255.51 424.92 0 0 6.83 224.07 210.42 342.94 0 0 148.93 110.67 267.8 28.69L809.1 456.87z"  horiz-adv-x="1024" />

    
    <glyph glyph-name="yinlian" unicode="&#59719;" d="M311.19 639h620.24c20.29-5.95 26.15-19.42 23.91-37.11L769.94 168c-10.19-14-24.6-23.33-45.17-25.76H82.41Q57.05 144.77999999999997 67 185.83000000000004l179.2 419.3c15.15 20.67 36.91 31.84 65 33.91zM311.82 639h183.4c-28.09-2.08-49.85-13.24-65-33.91L251.05 185.83000000000004q-10-41 15.38-43.55H83q-25.36 2.5-15.38 43.55l179.2 419.3c15.18 20.68 36.91 31.87 65 33.87zM495.22 639h225.72c-28.09-2.08-49.85-13.24-65-33.91L476.78 185.83000000000004q-10-41 15.38-43.55H266.44q-25.36 2.5-15.38 43.55l179.17 419.3c15.15 20.67 36.91 31.84 65 33.91zM335.16 459.4H367l0.36-14.31h28.42v-27.74H354c-6.83-11.53-20.17-16.17-34.24-12.7l-0.14 22.39c11.78 1.43 16.64 11.31 15.52 32.35z m399-48.46h-23.62l-19.67 29.51c-1.72-1-2.18-4.5-3.9-5.48-2.87-1.64-5.42-0.43-8.29-2.07l0.19-129.38c8.2-5.34 5.5-12.22 6.1-20.45 6.56 1.31 10.7-0.71 17.25 0.61 3.73 12.79 12.08 27.47 16.41 41.08 1 3.14-0.48 6.51 0.39 9.46h-26.19l0.45 25 30.87-0.3c0 5.25 0.61 15.33 0.61 20.58h-31.93V405l92.76-1.51-0.3-24.06-30.57-1.06-0.61-20.73 29.21 0.45 0.15-22.7-30.9-0.43c-2.76 0-1-6.06-2.7-8.65v-2c3.94-0.48 8.69 1.49 12.3-1.52 3.32-2.77 1.26-9.68 4-14.25 4.78-7.93 6.26-18.42 19.89-19.82l-0.19-29.34h-20.25c-9.76 12.77-19.62 20.15-23.62 39.43l-3.93-2c-4.34-15.86-11.55-27.39-21.64-37.38h-29.5c-1.12 2.53 0.57 7.69 0.11 8.79-0.76 1.83-3.72-1.14-8 1-1.27-7.15 1.06-6-2.09-9.84-9.57 0.09-18.33-0.31-26.4 1-5 0.81 0.29 7.3-4.76 8.23-12.9 2.38-38.34 0.55-57.25 0.6v25.66c7.15 1.27 6-1.52 9.84 1.62V454.22c8.52-0.66 17.05-0.1 25.57-0.76 0.66-3.28-0.5-8.68 0.15-12 1.63 1.09 6.48-2.27 6.67-0.22 1.18 12.45 26.59 15.61 50.84 13.16 5.21-0.53-0.46 4.35 5.28 4.63 9.42 0.46 19.43 1.61 29.52 1 4.46-10.17 6.86-17.34 17.71-21.64v-27.54z m25.57 47.21h27.54v-3.93c6.31-17.16-9.76-32.85-18-42.22l-23.15-0.15-0.17 26.15c10 1.85 10.42 3.63 13.77 10.29v9.84z m-348-2h22l0.73-15.74c15.75 15.55 37.32 17.21 77.56 14.5l0.2-82.48c0-11.21-10.14-15.59-11.19-17.12l-69.75 0.69 0.32-59.33c1.94-3.45 4.37-6.12 7.51-6.1l20 0.13-0.3-27.51-42.93 0.17c-3.8 0.48-5 3.56-5 7.82l0.88 185.06z m218.39-24.7c-4.73-10-5.11-21-4.77-37.63 11.54 1.23 18 5.3 24.22 11.8-0.66 8.52 0.54 17-0.11 25.5-5.9 0-13.44 0.33-19.34 0.33z m-193.31-4.18v-24.9c2 2 4.83 2.82 6.8 4.79 16.22 13.73 22.67 6.56 36.49 10.28v9.84z m-119-30.14h80.66v-21.64H367v-23.71h29.51v-25.47h-13.82c-6.32-12.2-16.57-26.52-13.77-41.31h21.64v-23.61l-37.38-2c-18.79 10.78-17 36.72-15.74 66.89h-21.63v25.54h21.64v23.71h-19.68v21.64z m162.3-20.75l0.49 11.76-42-0.18v-11.85l41.49 0.27z m145 3V346c8.52 2 16 3.93 24.49 5.9v27.57zM496 348h19.45c-0.66-9.18-0.19-19.93-0.85-29.11-7.59-3.18-16.65-2.83-29.06-2.59v-6.12c3.09-9.73 1-18.84 10.87-22.71 4.17 4.26 9 3.47 18 3.49-0.66-9.18 0.25-18.36-0.4-27.54-16.31-0.4-29.29-1.68-36.89 3.36-20.19 13.39-15.25 47-24.77 77.3 0.66 1.31 2 2.62 2.64 3.93h21.64c2-5.25 1.92-10.94 3.89-16.18 8.88 0.42 10.38 1.84 15.52 4.38V348z m130.72-17.71v-31.48h21.68c-0.66 10.49 0 20.45-0.62 30.94-6.56 0-14.47 0.54-21 0.54z"  horiz-adv-x="1024" />

    
    <glyph glyph-name="guangda" unicode="&#59718;" d="M63.33 577.0799999999999h201.15s36.57 0 43.89-11h-36.58v-11h58.51s11-7.31 11-11h-65.85v-11h73.14s7.32-3.66 7.32-14.63H129.16v-11h230.4v-11H125.5v-11h234.06s0-7.31-3.66-11L125.5 471v-11h226.75s0-11-7.31-11H121.85v-11h215.77s0-11-7.32-14.63H125.5v-11h190.18s-3.66-14.63-32.91-11h-36.58v-11h58.52s25.6 0 29.26-11l-84.11-3.66v-11h98.74s11-7.31 11-11H129.16v-11l234.06 3.66s11-7.31 11-11h-245v-11h248.63s3.66-3.66 0-11l-248.69-3.66v-11h248.69s3.66-7.32 0-11H129.16v-18.29h248.69s3.66-7.32-3.66-11h-245v-11h237.69s0-11-7.31-11h-84.12v-11h73.14s-3.66-11-11-11h-62.14v-18.29h43.89s-7.32-14.63-62.17-11H70.65V577.0799999999999zM388.82 324.74s-7.31 51.2 54.86 62.17c0 0 109.71 21.94 113.37-47.54l3.66-128 7.29-21.95h-58.5l-3.66 18.29s-29.26-29.26-73.14-18.29c0 0-51.2 3.66-51.2 58.52 0 0-3.66 36.57 32.91 47.54 0 0 54.86 14.63 73.14 14.63 0 0 36.57 7.32 7.32 32.91 0 0-47.54 11-47.54-21.94l-58.52 3.66z m186.52 58.51h54.86v-21.94s29.26 29.26 51.2 29.26c0 0 58.52 11 69.49-54.86v-146.29H696V321.08000000000004s-14.63 36.57-54.86 14.63c0 0-18.29-7.32-14.63-51.2v-95.09h-54.83l3.66 193.83z m193.83 76.8h51.2L824 313.77l62.17 80.46h62.17l-54.86-76.8 65.83-124.34-62.17-3.66-43.89 80.46-25.6-36.57v-43.89h-54.83l-3.66 270.63z m-267-179.2v-25.6s-7.31-21.94-25.6-25.6c0 0-32.91-21.94-43.89 7.31 0 0-3.66 14.63 11 21.94 0 3.66 54.86 14.63 58.51 21.94z"  horiz-adv-x="1024" />

    
    <glyph glyph-name="minghang" unicode="&#59721;" d="M502.07 545.6l87.34-47-83.3-51.07-87.34 44.35 83.3 53.76z m4 56.44l194.86-108.85-87.34-53.75s216.32-24.19 295.6-125c0 0 119.31-170.94-158.81-258.29 0 0-538.52-131.44-686.32 168.25l126.3 4s98.06-184.92 305-162.07c0 0 364.11 12.89 302.3 213.13 0 0-73.9 134.38-322.47 131.7L322 497.22 506.11 602zM427.74 276.66999999999996L515.07 325l88.68-48.38-91.37-48.38-84.65 48.38z m104 463.28c136.19-9.41 360.92-42.36 427-202.35H823.79C776.39 745.92 294 775.8 221.91 568.72c-37.05-94.93 101-203.8 200.44-202.46 20.68 0.28 53.76 11.61 85.14 4.4L683 277.40999999999997l-175.69-103-192 109 88.21 51.89C259.74 350.28999999999996 54.45 429.18 81.81 563.53c34.39 168.8 313.71 185.82 449.9 176.41z"  horiz-adv-x="1024" />

    
    <glyph glyph-name="jiantoushang" unicode="&#59731;" d="M910.222222 99.55555600000002c-17.066667 0-34.133333 5.688889-45.511111 17.066666L551.822222 486.4c-11.377778 5.688889-17.066667 11.377778-34.133333 11.377778-5.688889 0-22.755556-5.688889-28.444445-11.377778l-329.955555-364.088889c-22.755556-22.755556-56.888889-22.755556-79.644445-5.688889-22.755556 22.755556-22.755556 56.888889-5.688888 79.644445l329.955555 364.088889c28.444444 34.133333 73.955556 51.2 119.466667 51.2s85.333333-22.755556 119.466666-56.888889l312.888889-364.088889c22.755556-22.755556 17.066667-56.888889-5.688889-79.644445-11.377778-5.688889-28.444444-11.377778-39.822222-11.377777z"  horiz-adv-x="1024" />

    
    <glyph glyph-name="jiantoushang1" unicode="&#59732;" d="M910.222222 99.55555600000002c-17.066667 0-34.133333 5.688889-45.511111 17.066666L551.822222 486.4c-11.377778 5.688889-17.066667 11.377778-34.133333 11.377778-5.688889 0-22.755556-5.688889-28.444445-11.377778l-329.955555-364.088889c-22.755556-22.755556-56.888889-22.755556-79.644445-5.688889-22.755556 22.755556-22.755556 56.888889-5.688888 79.644445l329.955555 364.088889c28.444444 34.133333 73.955556 51.2 119.466667 51.2s85.333333-22.755556 119.466666-56.888889l312.888889-364.088889c22.755556-22.755556 17.066667-56.888889-5.688889-79.644445-11.377778-5.688889-28.444444-11.377778-39.822222-11.377777z"  horiz-adv-x="1024" />

    
    <glyph glyph-name="jiantouyou" unicode="&#59733;" d="M312.888889-99.55555600000002c-17.066667 0-28.444444 5.688889-39.822222 17.066667-22.755556 22.755556-17.066667 56.888889 5.688889 79.644445l364.088888 329.955555c11.377778 11.377778 17.066667 22.755556 17.066667 34.133333 0 11.377778-5.688889 22.755556-17.066667 34.133334L273.066667 708.266667c-22.755556 22.755556-28.444444 56.888889-5.688889 79.644444 22.755556 22.755556 56.888889 28.444444 79.644444 5.688889l364.088889-312.888889c34.133333-28.444444 56.888889-73.955556 56.888889-119.466667s-17.066667-85.333333-51.2-119.466666l-364.088889-329.955556c-11.377778-5.688889-28.444444-11.377778-39.822222-11.377778z"  horiz-adv-x="1024" />

    
    <glyph glyph-name="jiantouxia" unicode="&#59734;" d="M517.688889 99.55555600000002c-45.511111 0-85.333333 17.066667-119.466667 51.2L73.955556 514.8444440000001c-22.755556 22.755556-17.066667 56.888889 5.688888 79.644445 22.755556 22.755556 56.888889 17.066667 79.644445-5.688889l329.955555-364.088889c5.688889-5.688889 17.066667-11.377778 28.444445-11.377778s22.755556 5.688889 34.133333 17.066667l312.888889 364.088889c22.755556 22.755556 56.888889 28.444444 79.644445 5.688889 22.755556-22.755556 28.444444-56.888889 5.688888-79.644445L637.155556 156.44444399999998c-28.444444-39.822222-68.266667-56.888889-119.466667-56.888888 5.688889 0 0 0 0 0z"  horiz-adv-x="1024" />

    
    <glyph glyph-name="fenxiang" unicode="&#59672;" d="M284.444444 611.555556C159.288889 611.555556 56.888889 509.155556 56.888889 384s102.4-227.555556 227.555555-227.555556 227.555556 102.4 227.555556 227.555556-102.4 227.555556-227.555556 227.555556m0-398.222223c-96.711111 0-170.666667 73.955556-170.666666 170.666667s73.955556 170.666667 170.666666 170.666667 170.666667-73.955556 170.666667-170.666667-73.955556-170.666667-170.666667-170.666667M824.888889 839.111111C745.244444 839.111111 682.666667 776.533333 682.666667 696.8888890000001S745.244444 554.666667 824.888889 554.666667 967.111111 617.2444439999999 967.111111 696.8888890000001 904.533333 839.111111 824.888889 839.111111m0-227.555555c-45.511111 0-85.333333 39.822222-85.333333 85.333333S779.377778 782.222222 824.888889 782.222222s85.333333-39.822222 85.333333-85.333333S870.4 611.555556 824.888889 611.555556M824.888889 213.33333300000004c-79.644444 0-142.222222-62.577778-142.222222-142.222222s62.577778-142.222222 142.222222-142.222222 142.222222 62.577778 142.222222 142.222222-62.577778 142.222222-142.222222 142.222222m0-227.555555c-45.511111 0-85.333333 39.822222-85.333333 85.333333s39.822222 85.333333 85.333333 85.333333 85.333333-39.822222 85.333333-85.333333-39.822222-85.333333-85.333333-85.333333M452.380444 317.781333l295.594667-170.666666-28.444444-49.265778-295.594667 170.666667zM749.511111 617.699556l-295.594667-170.666667-28.444444 49.265778 295.594667 170.666666z"  horiz-adv-x="1024" />

    
    <glyph glyph-name="xihuan" unicode="&#59673;" d="M728.177778 782.222222c-130.844444 0-210.488889-102.4-210.488889-102.4S449.422222 782.222222 307.2 782.222222 56.888889 702.577778 56.888889 509.155556c0-273.066667 460.8-568.888889 460.8-568.888889S967.111111 253.15555600000005 967.111111 503.466667C967.111111 708.266667 836.266667 782.222222 728.177778 782.222222M517.688889 8.53333299999997S113.777778 287.28888900000004 113.777778 509.155556c0 142.222222 96.711111 221.866667 204.8 221.866666C426.666667 731.022222 517.688889 611.555556 517.688889 611.555556s108.088889 119.466667 204.8 119.466666c96.711111 0 193.422222-73.955556 193.422222-227.555555-5.688889-216.177778-398.222222-494.933333-398.222222-494.933334"  horiz-adv-x="1024" />

    
    <glyph glyph-name="shoucang" unicode="&#59680;" d="M22.755556 503.466667L341.333333 548.977778 483.555556 839.111111 625.777778 548.977778l318.577778-45.511111-227.555556-221.866667 56.888889-318.577778-284.444445 147.911111-284.444444-147.911111 56.888889 318.577778L22.755556 503.466667z m460.8-324.266667l210.488888-108.088889-39.822222 233.244445 170.666667 164.977777-238.933333 28.444445-102.4 210.488889L381.155556 497.777778l-233.244445-34.133334 170.666667-164.977777-39.822222-233.244445 204.8 113.777778z"  horiz-adv-x="1024" />

    
    <glyph glyph-name="dui" unicode="&#59681;" d="M512 839.111111C261.688889 839.111111 56.888889 634.311111 56.888889 384s204.8-455.111111 455.111111-455.111111 455.111111 204.8 455.111111 455.111111-204.8 455.111111-455.111111 455.111111m0-853.333333c-221.866667 0-398.222222 176.355556-398.222222 398.222222s176.355556 398.222222 398.222222 398.222222 398.222222-176.355556 398.222222-398.222222-176.355556-398.222222-398.222222-398.222222M320.910222 430.193778l201.159111-201.159111-40.220444-40.220445-201.159111 201.159111zM725.504 515.811556l40.220444-40.220445-281.6-281.6-40.220444 40.220445z"  horiz-adv-x="1024" />

    
    <glyph glyph-name="cuo" unicode="&#59682;" d="M512 839.111111C261.688889 839.111111 56.888889 634.311111 56.888889 384s204.8-455.111111 455.111111-455.111111 455.111111 204.8 455.111111 455.111111-204.8 455.111111-455.111111 455.111111m0-853.333333c-221.866667 0-398.222222 176.355556-398.222222 398.222222s176.355556 398.222222 398.222222 398.222222 398.222222-176.355556 398.222222-398.222222-176.355556-398.222222-398.222222-398.222222M684.942222 170.95111099999997L302.705778 553.073778l40.220444 40.220444 382.179556-382.122666zM298.837333 211.05777799999998l382.122667 382.179555 40.220444-40.220444-382.122666-382.179556z"  horiz-adv-x="1024" />

    
    <glyph glyph-name="gantanhao" unicode="&#59683;" d="M512 839.111111C261.688889 839.111111 56.888889 634.311111 56.888889 384s204.8-455.111111 455.111111-455.111111 455.111111 204.8 455.111111 455.111111-204.8 455.111111-455.111111 455.111111m0-853.333333c-221.866667 0-398.222222 176.355556-398.222222 398.222222s176.355556 398.222222 398.222222 398.222222 398.222222-176.355556 398.222222-398.222222-176.355556-398.222222-398.222222-398.222222M512 213.33333300000004c-17.066667 0-28.444444-5.688889-39.822222-17.066666-11.377778-11.377778-17.066667-22.755556-17.066667-39.822223 0-17.066667 5.688889-28.444444 17.066667-39.822222 11.377778-11.377778 22.755556-17.066667 39.822222-17.066666 17.066667 0 28.444444 5.688889 39.822222 17.066666 11.377778 11.377778 17.066667 22.755556 17.066667 39.822222 0 17.066667-5.688889 28.444444-17.066667 39.822223-11.377778 11.377778-22.755556 17.066667-39.822222 17.066666z m-51.2 455.111111l17.066667-409.6h62.577777L563.2 668.444444H460.8z"  horiz-adv-x="1024" />

    
    <glyph glyph-name="wenhao" unicode="&#59684;" d="M512 839.111111C261.688889 839.111111 56.888889 634.311111 56.888889 384s204.8-455.111111 455.111111-455.111111 455.111111 204.8 455.111111 455.111111-204.8 455.111111-455.111111 455.111111m0-853.333333c-221.866667 0-398.222222 176.355556-398.222222 398.222222s176.355556 398.222222 398.222222 398.222222 398.222222-176.355556 398.222222-398.222222-176.355556-398.222222-398.222222-398.222222M506.311111 213.33333300000004c-17.066667 0-28.444444-5.688889-39.822222-17.066666-11.377778-11.377778-17.066667-22.755556-17.066667-39.822223 0-17.066667 5.688889-28.444444 17.066667-39.822222 11.377778-11.377778 22.755556-17.066667 39.822222-17.066666 17.066667 0 28.444444 5.688889 39.822222 17.066666 11.377778 11.377778 17.066667 22.755556 17.066667 39.822222 0 17.066667-5.688889 28.444444-17.066667 39.822223-11.377778 11.377778-22.755556 17.066667-39.822222 17.066666z m17.066667 466.488889c-56.888889 0-102.4-17.066667-136.533334-51.2-39.822222-34.133333-56.888889-79.644444-56.888888-136.533333h85.333333c0 34.133333 5.688889 62.577778 22.755555 79.644444 17.066667 22.755556 39.822222 34.133333 79.644445 34.133334 28.444444 0 51.2-5.688889 68.266667-22.755556 17.066667-17.066667 22.755556-39.822222 22.755555-62.577778 0-22.755556-5.688889-39.822222-22.755555-56.888889l-17.066667-17.066666c-45.511111-45.511111-79.644444-79.644444-91.022222-102.4-11.377778-17.066667-11.377778-45.511111-11.377778-73.955556v-11.377778h85.333333V270.222222c0 17.066667 5.688889 34.133333 11.377778 51.2 5.688889 17.066667 17.066667 28.444444 34.133333 39.822222 39.822222 34.133333 62.577778 51.2 68.266667 62.577778 22.755556 22.755556 28.444444 56.888889 28.444444 96.711111 0 45.511111-17.066667 85.333333-45.511111 113.777778-34.133333 34.133333-73.955556 45.511111-125.155555 45.511111z"  horiz-adv-x="1024" />

    
    <glyph glyph-name="tishi" unicode="&#59685;" d="M398.222222 156.44444399999998h227.555556v-56.888888H398.222222v56.888888z m0 341.333334h56.888889v-56.888889H398.222222V497.777778z m56.888889 0h113.777778v-341.333334H455.111111V497.777778zM512-14.222221999999988c221.866667 0 398.222222 176.355556 398.222222 398.222222s-176.355556 398.222222-398.222222 398.222222-398.222222-176.355556-398.222222-398.222222 176.355556-398.222222 398.222222-398.222222zM512 839.111111c250.311111 0 455.111111-204.8 455.111111-455.111111s-204.8-455.111111-455.111111-455.111111-455.111111 204.8-455.111111 455.111111 204.8 455.111111 455.111111 455.111111zM512 611.555556m-56.888889 0a56.888889 56.888889 0 1 1 113.777778 0 56.888889 56.888889 0 1 1-113.777778 0Z"  horiz-adv-x="1024" />

    
    <glyph glyph-name="i18n" unicode="&#59664;" d="M499.0546170311111 464.26137258666665c0 2.5890770488888886 0 2.5890770488888886 0 0 0 2.5890770488888886 0 0 0 0z m168.28997518222224-186.4135111111111z m5.17815296 0h-5.17815296s2.5890770488888886-2.5890770488888886 5.17815296 0zM506.82184703999997 831.910241848889c-243.37319480888888 0-442.7320888888889-196.76981703111107-442.7320888888889-442.7320888888889s196.76981703111107-442.7320888888889 442.7320888888889-442.7320888888889c243.37319480888888 0 442.7320888888889 196.76981703111107 442.7320888888889 442.7320888888889S752.7841188977778 831.910241848889 506.82184703999997 831.910241848889z m282.20934257777776-173.4681281422222c-15.534458879999999 0-25.890765937777775 0-38.836147768888885-7.767230008888888-5.17815296-2.5890770488888886-7.767230008888888-7.767230008888888-15.534458879999999-10.35630592-5.17815296-2.5890770488888886-12.945382968888888 0-18.123535928888888-2.5890770488888886-20.71261184-7.767230008888888-18.123535928888888-49.19245482666667-44.01430186666666-44.014300728888884-12.945382968888888 2.5890770488888886-20.71261184 18.123535928888888-28.47984184888889 28.47984184888889-5.17815296 7.767230008888888-15.534458879999999 15.534458879999999-7.7672288711111115 25.890765937777775h-10.356307057777778c5.17815296 10.35630592 18.123535928888888 7.767230008888888 20.712612977777777 12.945381831111112 5.17815296 12.945382968888888-15.534458879999999 12.945382968888888-23.301688888888886 15.534460017777777 7.767230008888888 7.767230008888888 10.35630592-2.5890770488888886 18.123535928888888 0 7.767230008888888 2.5890770488888886-2.5890770488888886 10.35630592-7.767230008888888 12.945382968888888-2.5890770488888886 0-25.890765937777775-7.767230008888888-12.945382968888888 5.17815296-18.123535928888888 10.35630592-36.247071857777776 23.301688888888886-54.37060664888888 33.657994808888894-2.5890770488888886-12.945382968888888 23.301688888888886-20.71261184 33.657994808888894-23.301688888888886-2.5890770488888886-5.17815296-10.35630592-12.945382968888888-15.534458879999999-10.35630592-5.17815296 2.5890770488888886-2.5890770488888886 12.945382968888888-12.945382968888888 10.35630592-5.17815296-15.534458879999999 12.945382968888888-10.35630592 15.534458879999999-20.712612977777777 2.5890770488888886-10.35630592-7.767230008888888-5.17815296-10.35630592-5.17815296 0 0-7.767230008888888 7.767230008888888-7.767230008888888 2.5890770488888886 0-5.17815296 10.35630592-5.17815296 12.945382968888888-10.35630592-12.945382968888888 0-20.71261184 5.17815296-31.068918897777777 10.35630592-12.945382968888888 7.767230008888888-18.123535928888888 7.767230008888888-33.657994808888894 7.767230008888888 5.17815296 2.5890770488888886 10.35630592 2.5890770488888886 15.534458879999999 5.17815296 2.5890770488888886 2.5890770488888886 10.35630592 10.35630592 10.356307057777778 12.945381831111112 2.5890770488888886 7.767230008888888 0 7.767230008888888-7.767230008888888 12.945382968888888-2.5890770488888886 2.5890770488888886-10.35630592 12.945382968888888-20.71261184 12.945382968888888-28.47984184888889 5.17815296-10.35630592-25.890765937777775-31.068918897777777-31.068918897777777-5.17815296 0-15.534458879999999 2.5890770488888886-18.123535928888888-2.5890759111111112-2.5890770488888886-2.5890770488888886-2.5890770488888886-10.35630592-5.17815296-12.945382968888888-5.17815296-5.17815296-12.945382968888888-5.17815296-18.123535928888888-10.35630592-5.17815296-2.5890770488888886-18.123535928888888-12.945382968888888-20.71261184-18.123535928888888-12.945382968888888-23.301688888888886 25.890765937777775-31.068918897777777 41.42522368-36.247071857777776 7.767230008888888-2.5890770488888886 25.890765937777775-7.767230008888888 28.479842986666664-12.945382968888888 5.17815296-7.767230008888888-5.17815296-12.945382968888888 5.17815296-18.123535928888888 2.5890770488888886-2.5890770488888886 10.35630592-2.5890770488888886 12.945381831111112 2.5890770488888886 5.17815296 5.17815296-2.5890770488888886 5.17815296-2.5890759111111112 12.945382968888888-2.5890770488888886 10.35630592 2.5890770488888886 7.767230008888888 7.767230008888888 10.35630592 10.35630592 7.767230008888888 7.767230008888888 10.35630592 5.17815296 23.301688888888886-2.5890770488888886 5.17815296-10.35630592 23.301688888888886-2.5890770488888886 28.47984184888889 7.767230008888888 5.17815296 25.890765937777775-2.5890770488888886 33.657994808888894-5.17815296 7.767230008888888 0 12.945382968888888-10.35630592 15.534460017777777-15.534458879999999 2.5890770488888886-2.5890770488888886 7.767230008888888-7.767230008888888 12.945381831111112-7.767230008888888 7.767230008888888 0 5.17815296 7.767230008888888 7.767230008888888 10.35630592 12.945382968888888 7.767230008888888 15.534458879999999-2.5890770488888886 20.712612977777777-12.945382968888888 5.17815296-10.35630592 7.767230008888888-12.945382968888888 15.534458879999999-20.71261184 2.5890770488888886-2.5890770488888886 20.71261184-12.945382968888888 18.123535928888888-20.71261184 0-5.17815296-18.123535928888888-10.35630592-23.301688888888886-12.945382968888888-18.123535928888888-5.17815296-51.78153073777778 10.35630592-54.37060778666666-18.123535928888888 7.767230008888888 2.5890770488888886 25.890765937777775 18.123535928888888 31.068918897777777 10.35630592 2.5890770488888886-2.5890770488888886-2.5890770488888886-7.767230008888888 0-12.945382968888888 2.5890770488888886-10.35630592 10.35630592-7.767230008888888 20.71261184-5.17815296h-2.5890759111111112c10.35630592 5.17815296 10.35630592 5.17815296 15.534458879999999 12.945382968888888 2.5890770488888886 2.5890770488888886 5.17815296 10.35630592 7.767230008888888 12.945382968888888 7.767230008888888 7.767230008888888 10.35630592 2.5890770488888886 15.534458879999999-2.5890770488888886 2.5890770488888886-2.5890770488888886 12.945382968888888-20.71261184 10.35630592-18.123535928888888-15.534458879999999 2.5890770488888886-28.47984184888889 2.5890770488888886-41.42522481777778-5.17815296-7.767230008888888-5.17815296-12.945382968888888-10.35630592-20.71261184-12.945382968888888-2.5890770488888886 0-18.123535928888888-2.5890770488888886-15.534458879999999 0 2.5890770488888886 2.5890770488888886 10.35630592 5.17815296 15.534458879999999 10.356307057777778-10.35630592 5.17815296-18.123535928888888-5.17815296-25.890765937777775-10.356307057777778-7.767230008888888-2.5890770488888886-10.35630592-10.35630592-15.534458879999999-18.123534791111112-2.5890770488888886-2.5890770488888886-7.767230008888888-2.5890770488888886-10.35630592-7.767230008888888-2.5890770488888886-2.5890770488888886-2.5890770488888886-7.767230008888888-5.17815296-12.945382968888888-2.5890770488888886-2.5890770488888886-7.767230008888888 0-7.767230008888888-5.17815296-2.5890770488888886-5.17815296 2.5890770488888886-7.767230008888888 0-12.945382968888888s-12.945382968888888-10.35630592-18.123535928888888-15.534458879999999l2.5890770488888886 2.5890759111111112c-5.17815296-5.17815296-10.35630592-7.767230008888888-12.945382968888888-12.945381831111112 2.5890770488888886-7.767230008888888 7.767230008888888-25.890765937777775 5.17815296-28.47984184888889-12.945382968888888-10.35630592-20.71261184 10.35630592-25.890765937777775 15.534458879999999-12.945382968888888 18.123535928888888-36.247071857777776 5.17815296-54.37060664888888 5.17815296-20.71261184-2.5890770488888886-41.42522481777778-28.47984184888889-28.47984184888889-51.78153073777778 5.17815296-10.35630592 18.123535928888888-15.534458879999999 28.47984184888889-12.945382968888888 10.35630592 2.5890770488888886 12.945382968888888 18.123535928888888 23.301688888888886 18.123535928888888 18.123535928888888 0 0-18.123535928888888 0-25.890765937777775-2.5890770488888886-5.17815296 2.5890770488888886-7.767230008888888 7.7672288711111115-7.7672288711111115 5.17815296 0 12.945382968888888 2.5890770488888886 15.534460017777777 0 2.5890770488888886-2.5890770488888886 2.5890770488888886-10.35630592 5.17815296-7.767230008888888-7.767230008888888-5.17815296-5.17815296-20.71261184 2.5890759111111112-25.8907648 7.767230008888888-5.17815296 18.123535928888888 0 25.890765937777775-2.5890770488888886 15.534458879999999-5.17815296 7.767230008888888 0 23.301688888888886 10.35630592 10.35630592 5.17815296 10.35630592 0 18.123535928888888 0 5.17815296 0 7.767230008888888 5.17815296 15.534458879999999 5.17815296 5.17815296-2.5890770488888886 7.767230008888888-5.17815296 15.534460017777777-7.7672288711111115h7.7672288711111115c12.945382968888888-2.5890770488888886 23.301688888888886-10.35630592 33.657994808888894-18.123535928888888 7.767230008888888-5.17815296 15.534458879999999-5.17815296 25.890765937777775-7.767230008888888 7.767230008888888-2.5890770488888886 20.71261184-12.945382968888888 20.71261184-23.301688888888886 0-2.5890770488888886-7.767230008888888-10.35630592-7.7672288711111115-12.945382968888888 2.5890770488888886-2.5890770488888886 15.534458879999999 2.5890770488888886 18.123535928888888 2.5890770488888886 0-2.5890770488888886-10.35630592-7.767230008888888-10.356307057777778-5.17815296 0-2.5890770488888886 5.17815296-5.17815296 7.767230008888888-5.17815296 5.17815296 15.534458879999999 12.945382968888888 5.17815296 20.712612977777777 2.5890759111111112 7.767230008888888-2.5890770488888886 18.123535928888888-2.5890770488888886 25.8907648-5.17815296 7.767230008888888-2.5890770488888886 23.301688888888886-7.767230008888888 28.47984184888889-12.945382968888888 5.17815296-7.767230008888888 2.5890770488888886-18.123535928888888-2.5890759111111112-25.8907648-5.17815296-10.35630592-15.534458879999999-12.945382968888888-20.712612977777777-23.301688888888886-2.5890770488888886-7.767230008888888 0-18.123535928888888-2.5890759111111112-25.890765937777775-2.5890770488888886-12.945382968888888-5.17815296-7.767230008888888-12.945382968888888-15.534458879999999s0-5.17815296-10.35630592-10.35630592-18.123535928888888-2.5890770488888886-25.890765937777775-12.945382968888888v2.5890759111111112c-2.5890770488888886-5.17815296-5.17815296-12.945382968888888-5.17815296-15.534458879999999-2.5890770488888886-7.767230008888888-7.767230008888888-10.35630592-12.945382968888888-15.534458879999999-2.5890770488888886-2.5890770488888886-20.71261184-28.47984184888889-20.71261184-25.890765937777775-2.5890770488888886 2.5890770488888886-15.534458879999999-2.5890770488888886-15.534460017777777 0 0-2.5890770488888886 0-2.5890770488888886 2.5890770488888886-5.17815296-2.5890770488888886-20.71261184-12.945382968888888-23.301688888888886-33.657994808888894-23.301688888888886 2.5890770488888886-10.35630592-7.767230008888888-7.767230008888888-12.945382968888888-12.945382968888888-2.5890770488888886-2.5890770488888886-2.5890770488888886-12.945382968888888-5.17815296-15.534458879999999 0-2.5890770488888886-10.35630592-12.945382968888888-10.35630592-15.534458879999999 0-2.5890770488888886 2.5890770488888886-5.17815296 5.17815296-7.767230008888888-15.534458879999999-2.5890770488888886-28.47984184888889-5.17815296-44.01430186666666-5.17815296 2.5890770488888886 2.5890770488888886 2.5890770488888886 7.767230008888888-5.17815296 7.767230008888888 2.5890770488888886 7.767230008888888 7.767230008888888 10.35630592 10.35630592 15.534458879999999v7.767230008888888c2.5890770488888886 10.35630592 2.5890770488888886 5.17815296 0 12.945381831111112-5.17815296 18.123535928888888 2.5890770488888886 23.301688888888886 7.767230008888888 41.42522481777778 5.17815296 18.123535928888888 5.17815296 38.836147768888885 7.767230008888888 59.548760746666666 2.5890770488888886 7.767230008888888 5.17815296 28.47984184888889 0 36.247071857777776-2.5890770488888886 10.35630592-18.123535928888888 18.123535928888888-25.890765937777775 23.301688888888886-10.35630592 10.35630592-15.534458879999999 18.123535928888888-23.301688888888886 31.068917759999998-2.5890770488888886 5.17815296-7.767230008888888 10.35630592-10.35630592 18.123535928888888-5.17815296 12.945382968888888 0 5.17815296 0 12.945382968888888s0 15.534458879999999 2.5890770488888886 23.301688888888886c2.5890770488888886 7.767230008888888 10.35630592 15.534458879999999 15.534458879999999 23.301688888888886 2.5890770488888886 7.767230008888888 0 18.123535928888888-7.767230008888888 20.712612977777777-5.17815296 2.5890770488888886-10.35630592-2.5890770488888886-12.945382968888888 0-5.17815296 0-12.945382968888888 5.17815296-18.123534791111112 10.35630592-7.767230008888888 5.17815296-10.35630592 12.945382968888888-18.123535928888888 18.123535928888888-5.17815296 5.17815296-10.35630592 2.5890770488888886-18.123535928888888 2.5890759111111112-7.767230008888888 2.5890770488888886-10.35630592 10.35630592-15.534460017777777 12.945382968888888-7.767230008888888 5.17815296-12.945382968888888-2.5890770488888886-20.71261184 0-7.767230008888888 0-18.123535928888888 10.35630592-25.890765937777775 12.945382968888888-15.534458879999999 5.17815296-23.301688888888886 12.945382968888888-28.47984184888889 28.47984184888889-5.17815296 12.945382968888888-12.945382968888888 18.123535928888888-20.71261184 28.47984184888889-7.767230008888888 10.35630592-10.35630592 18.123535928888888-23.301688888888886 23.301688888888886-2.5890770488888886 0 2.5890770488888886-10.35630592 2.5890759111111112-12.945382968888888 5.17815296-7.767230008888888 12.945382968888888-15.534458879999999 18.123535928888888-25.8907648 7.767230008888888-12.945382968888888 5.17815296-12.945382968888888-2.5890759111111112-2.5890770488888886-10.35630592 12.945382968888888-20.71261184 25.890765937777775-28.47984184888889 38.836147768888885 5.17815296-5.17815296 5.17815296 0 0 5.178154097777777s-12.945382968888888 7.767230008888888-15.534460017777777 12.945381831111112c-18.123535928888888 15.534458879999999-20.71261184 38.836147768888885-20.71261184 62.137837795555555 0 7.767230008888888 2.5890770488888886 12.945382968888888 2.5890759111111112 20.71261184 0 5.17815296-5.17815296 10.35630592-10.35630592 15.534458879999999-2.5890770488888886 2.5890770488888886-5.17815296 7.767230008888888-5.17815296 7.767230008888888-5.17815296 7.767230008888888-7.767230008888888 12.945382968888888-12.945382968888888 18.123535928888888-2.5890770488888886 2.5890770488888886-12.945382968888888 10.35630592-23.301688888888886 18.123535928888888 41.42522481777778 51.78153073777778 95.79583260444444 93.20675555555555 157.93366926222222 119.09752035555556 0-2.5890770488888886 2.5890770488888886-5.17815296 2.5890770488888886-10.35630592 7.767230008888888-7.767230008888888 12.945382968888888-7.767230008888888 20.71261184-10.35630592 0-10.35630592-15.534458879999999-12.945382968888888-23.301688888888886-10.35630592-10.35630592 2.5890770488888886-23.301688888888886 5.17815296-31.068917759999998-5.17815296 5.17815296-2.5890770488888886 20.71261184-15.534458879999999 18.123534791111112-2.5890770488888886h31.068918897777777c5.17815296 0 18.123535928888888-5.17815296 20.712612977777777-2.5890759111111112 2.5890770488888886 0 2.5890770488888886 7.767230008888888 5.17815296 10.35630592-2.5890770488888886 0-5.17815296 2.5890770488888886-7.767230008888888 0 7.767230008888888 7.767230008888888 12.945382968888888 2.5890770488888886 23.301688888888886-2.5890770488888886-10.35630592-5.17815296-2.5890770488888886-20.71261184 5.17815296-7.7672288711111115 7.767230008888888 10.35630592-2.5890770488888886 15.534458879999999-10.35630592 20.71261184 10.35630592 12.945382968888888 15.534458879999999 12.945382968888888 25.8907648 0 2.5890770488888886 7.767230008888888 7.767230008888888 5.17815296 15.534460017777777 5.17815296v2.5890770488888886c-2.5890770488888886 0-7.767230008888888 2.5890770488888886-10.35630592 2.5890759111111112 7.767230008888888 12.945382968888888 2.5890770488888886 15.534458879999999 12.945381831111112 18.123535928888888 7.767230008888888 2.5890770488888886 31.068918897777777 0 36.247071857777776 7.767230008888888-15.534458879999999-2.5890770488888886-36.247071857777776-5.17815296-51.78153073777778-10.35630592-7.767230008888888-2.5890770488888886-12.945382968888888-12.945382968888888-20.71261184-7.767230008888888-7.767230008888888 7.767230008888888 5.17815296 18.123535928888888 10.35630592 20.71261184h-2.5890770488888886c25.890765937777775 5.17815296 54.37060778666666 7.767230008888888 82.85044963555556 7.767230008888888 18.123535928888888 0 36.247071857777776-2.5890770488888886 54.37060778666666-2.5890770488888886-5.17815296-2.5890770488888886-2.5890770488888886-5.17815296-5.17815296-7.7672288711111115-7.767230008888888-5.17815296-23.301688888888886-10.35630592-33.65799594666667-15.534460017777777 12.945382968888888 0 44.014300728888884-12.945382968888888 49.19245482666667 5.178154097777777-5.17815296 0-7.767230008888888 0-12.945382968888888 2.5890759111111112 7.767230008888888 5.17815296 15.534458879999999 10.35630592 25.890765937777775 12.945382968888888 75.08321962666668-18.123535928888888 147.57736334222224-59.548760746666666 199.35889294222224-116.50844444444445 2.5890770488888886 0 0 0 0 0z m72.49414371555555-155.34459221333333c0 2.5890770488888886 2.5890770488888886 2.5890770488888886 2.5890770488888886 2.5890759111111112 2.5890770488888886 2.5890770488888886 0 5.17815296 2.5890759111111112 7.767230008888888 2.5890770488888886 2.5890770488888886 5.17815296 2.5890770488888886 7.767230008888888 5.17815296l2.5890759111111112 2.5890759111111112c7.767230008888888-18.123535928888888 12.945382968888888-36.247071857777776 15.534460017777777-56.95968369777778l-7.767230008888888-2.5890759111111112c-5.17815296 0-7.767230008888888 2.5890770488888886-10.35630592 5.17815296l-10.35630592 10.35630592c-2.5890770488888886 5.17815296 0 7.767230008888888 0 12.945382968888888-2.5890770488888886 5.17815296-5.17815296 10.35630592-2.5890770488888886 12.945382968888888z m5.17815296-201.94797112888887c-7.767230008888888 7.767230008888888-15.534458879999999 15.534458879999999-20.71261184 23.301688888888886-5.17815296 10.35630592-2.5890770488888886 18.123535928888888-2.5890770488888886 28.47984184888889 0 7.767230008888888-5.17815296 20.71261184 0 28.47984184888889l7.767230008888888 7.767230008888888c2.5890770488888886 5.17815296 2.5890770488888886 10.35630592 7.7672288711111115 15.534458879999999 5.17815296 5.17815296 10.35630592 7.767230008888888 15.534460017777777 12.945382968888888 5.17815296 5.17815296 5.17815296 7.767230008888888 7.7672288711111115 15.534460017777777 2.5890770488888886 5.17815296 7.767230008888888 12.945382968888888 12.945382968888888 15.534458879999999 2.5890770488888886-20.71261184 5.17815296-38.836147768888885 5.17815296-59.548760746666666 0-33.657994808888894-5.17815296-69.90506666666667-12.945381831111112-100.97398556444443-7.767230008888888 2.5890770488888886-15.534458879999999 7.767230008888888-20.712612977777777 12.945382968888888z m0 0"  horiz-adv-x="1024" />

    
    <glyph glyph-name="zan" unicode="&#59649;" d="M884.875894 472.856747L646.970506 472.856747c92.185562 340.464205-63.516616 357.853247-63.516616 357.853247-65.993017 0-52.312436-52.182476-57.3031-60.881602 0-166.502152-176.849824-296.971645-176.849824-296.971645l0-472.171899c0-46.607504 63.516616-63.393819 88.433098-63.393819l357.452111 0c33.641191 0 61.036122 88.224344 61.036122 88.224344 88.434122 300.70569 88.434122 390.177444 88.434122 390.177444C944.657442 477.820805 884.875894 472.856747 884.875894 472.856747L884.875894 472.856747 884.875894 472.856747zM884.875894 472.856747M251.671415 472.700181L109.214912 472.700181c-29.420053 0-29.873378-28.89612-29.873378-28.89612l29.420053-476.202703c0-30.309306 30.361495-30.309306 30.361495-30.309306L262.420223-62.70794799999999c25.686009 0 25.458835 20.049638 25.458835 20.049638L287.879058 436.588729C287.879058 473.162716 251.671415 472.700181 251.671415 472.700181L251.671415 472.700181 251.671415 472.700181zM251.671415 472.700181"  horiz-adv-x="1024" />

    
    <glyph glyph-name="huangguan" unicode="&#59735;" d="M991.62642963 693.23282963c0.9709037-0.36408889 1.69908148-0.84954075 2.66998519-1.21362963l0.48545185 4.00497778-3.15543704-2.79134815z m-974.66595555 0.60681482c0.48545185 0.24272592 1.09226667 0.36408889 1.57771851 0.72817777l-2.06317037 1.69908148 0.48545186-2.42725925z m934.13072592-48.66654815c-8.61677037 0-16.384-3.39816297-22.08805925-8.8594963-0.36408889-0.36408889-0.48545185-0.24272592-0.3640889 0.24272592L715.40432592 444.19602963 541.73392592 792.14364445c-8.13131852 10.8013037-20.99579259 17.59762963-35.55934814 17.59762963-16.99081482 0-31.7970963-9.58767408-39.3216-23.54441483L296.09528889 444.19602963 76.06423703 642.74583703c-4.61179259 2.54862222-9.95176297 4.00497778-15.65582221 4.00497779-17.59762963 0-31.7970963-14.32082963-31.7970963-31.7970963 0-1.45635555-0.24272592-2.18453333-0.72817777-2.18453334l68.08462222-508.63217777c0 1.94180741-0.12136297 3.88361482-0.36408889 5.94678518 4.12634075-35.43798518 28.03484445-64.80782222 60.19602962-76.94411851-2.91271111 1.09226667-5.82542222 1.94180741-8.4954074 2.42725925 68.32734815-25.60758518 202.43342222-42.23431111 356.92847407-40.77795555 155.22322963 1.33499259 290.54293333 20.51034075 359.84118518 47.57428147-2.54862222-0.48545185-5.21860741-1.21362963-8.13131852-2.30589628 32.16118518 12.25765925 56.06968889 41.6274963 60.19602964 77.06548148-0.48545185-4.12634075-0.48545185-8.00995555-0.24272592-11.52948148l67.59917036 505.96219258c-0.24272592 0.24272592-0.48545185 0.9709037-0.48545186 2.06317037 0 17.23354075-14.19946667 31.55437037-31.91845925 31.55437038z"  horiz-adv-x="1024" />

    
    <glyph glyph-name="mine" unicode="&#59648;" d="M848.818342-12.777424999999994H153.870899c7.585185 148.814109 108.359788 272.705467 245.254321 314.604585-91.022222 39.370723-154.593298 130.031746-154.593298 235.501941 0 141.590123 114.861376 256.812698 256.812699 256.812698 141.590123 0 256.812698-114.861376 256.812698-256.812698 0-105.470194-63.571076-195.770018-154.593298-235.501941 136.894533-41.899118 237.669136-165.790476 245.254321-314.604585z"  horiz-adv-x="1024" />

    
    </font>
</defs>
</svg>
